<svg width="24" height="24" viewBox="0 0 24 24" fill="none" xmlns="http://www.w3.org/2000/svg">
<path d="M12.0008 3C11.5551 2.66571 11.0251 2.46215 10.4702 2.41212C9.91531 2.36208 9.35746 2.46755 8.85914 2.71671C8.36082 2.96587 7.94173 3.34887 7.64883 3.8228C7.35593 4.29673 7.20078 4.84286 7.20078 5.4V7.2H6.00078C5.68252 7.2 5.3773 7.32642 5.15225 7.55147C4.92721 7.77651 4.80078 8.08174 4.80078 8.4V18C4.80078 18.9548 5.18007 19.8704 5.8552 20.5456C6.53033 21.2207 7.446 21.6 8.40078 21.6H13.8368L12.662 20.4H8.40078C7.76426 20.4 7.15381 20.1471 6.70372 19.6971C6.25364 19.247 6.00078 18.6365 6.00078 18V8.4H13.2008V10.8624C13.4021 10.8208 13.6072 10.7999 13.8128 10.8H14.4008V8.4H18.0008V10.8924C18.44 11.004 18.8516 11.214 19.2008 11.5092V8.4C19.2008 8.08174 19.0744 7.77651 18.8493 7.55147C18.6243 7.32642 18.319 7.2 18.0008 7.2H16.8008V5.4C16.8008 4.84286 16.6456 4.29673 16.3527 3.8228C16.0598 3.34887 15.6407 2.96587 15.1424 2.71671C14.6441 2.46755 14.0862 2.36208 13.5314 2.41212C12.9765 2.46215 12.4465 2.66571 12.0008 3ZM8.40078 5.4C8.40078 4.92261 8.59042 4.46477 8.92799 4.1272C9.26555 3.78964 9.72339 3.6 10.2008 3.6C10.6782 3.6 11.136 3.78964 11.4736 4.1272C11.8111 4.46477 12.0008 4.92261 12.0008 5.4V7.2H8.40078V5.4ZM12.8012 3.9024C13.0723 3.72137 13.3874 3.61736 13.713 3.60147C14.0386 3.58557 14.3624 3.65839 14.6498 3.81215C14.9372 3.9659 15.1775 4.19483 15.345 4.47448C15.5125 4.75414 15.6009 5.07402 15.6008 5.4V7.2H13.2008V5.4C13.2008 4.8552 13.0556 4.344 12.8012 3.9024ZM12.5192 18.5388C12.1871 18.1996 12.001 17.7439 12.0008 17.2692V13.8132C12.0006 13.5751 12.0474 13.3394 12.1384 13.1194C12.2294 12.8994 12.3628 12.6995 12.5311 12.5311C12.6994 12.3628 12.8992 12.2292 13.1191 12.138C13.339 12.0469 13.5747 12 13.8128 12H17.2604C17.744 12 18.2072 12.1932 18.5468 12.5364L22.2752 16.3044C22.4444 16.4753 22.578 16.6781 22.6682 16.901C22.7584 17.1239 22.8034 17.3626 22.8006 17.6031C22.7979 17.8435 22.7473 18.0811 22.652 18.3019C22.5566 18.5227 22.4183 18.7223 22.2452 18.8892L18.7088 22.2936C18.365 22.6249 17.9041 22.8069 17.4267 22.7999C16.9493 22.793 16.494 22.5976 16.16 22.2564L12.5192 18.5388ZM14.4008 15.3C14.4008 15.5387 14.4956 15.7676 14.6644 15.9364C14.8332 16.1052 15.0621 16.2 15.3008 16.2C15.5395 16.2 15.7684 16.1052 15.9372 15.9364C16.106 15.7676 16.2008 15.5387 16.2008 15.3C16.2008 15.0613 16.106 14.8324 15.9372 14.6636C15.7684 14.4948 15.5395 14.4 15.3008 14.4C15.0621 14.4 14.8332 14.4948 14.6644 14.6636C14.4956 14.8324 14.4008 15.0613 14.4008 15.3Z" fill="#333333"/>
</svg>
