<svg width="24" height="24" viewBox="0 0 24 24" fill="none" xmlns="http://www.w3.org/2000/svg">
<path d="M11.4382 2.23109C8.97342 2.2351 6.58822 3.0903 4.69828 4.64767V1H2.81064V8.40933H10.338V6.5399H5.39312C6.69787 5.28509 8.37266 4.469 10.1775 4.20856C11.9824 3.94812 13.8247 4.25671 15.4404 5.0901C17.0562 5.92348 18.3625 7.23891 19.1721 8.84788C19.9818 10.4569 20.2532 12.2768 19.9476 14.047C19.642 15.8171 18.775 17.4466 17.4708 18.702C16.1666 19.9574 14.4922 20.7742 12.6874 21.0354C10.8827 21.2966 9.04028 20.9889 7.42415 20.1562C5.80803 19.3235 4.50115 18.0086 3.69077 16.4L2 17.2321C2.83603 18.8902 4.10712 20.2982 5.68166 21.3103C7.25621 22.3224 9.07698 22.9018 10.9555 22.9886C12.8339 23.0754 14.7018 22.6663 16.3658 21.8038C18.0297 20.9414 19.4292 19.6568 20.4193 18.0831C21.4094 16.5094 21.9542 14.7038 21.9972 12.8532C22.0403 11.0026 21.58 9.17438 20.6641 7.55773C19.7481 5.94108 18.4099 4.5948 16.7878 3.65827C15.1657 2.72174 13.3187 2.22901 11.4382 2.23109Z" fill="#333333"/>
</svg>
