<svg width="160" height="160" viewBox="0 0 160 160" fill="none" xmlns="http://www.w3.org/2000/svg">
<path d="M25 35C22.25 35 20 37.25 20 40C20 42.75 22.25 45 25 45H36.095L49.22 97.5C50.33 101.95 54.32 105 58.905 105H116.25C120.76 105 124.59 102.01 125.78 97.655L138.75 50H55L57.5 60H125.78L116.25 95H58.905L45.78 42.5C45.2392 40.3465 43.9913 38.4369 42.2362 37.077C40.4811 35.7172 38.3203 34.9858 36.1 35H25ZM110 105C101.775 105 95 111.775 95 120C95 128.225 101.775 135 110 135C118.225 135 125 128.225 125 120C125 111.775 118.225 105 110 105ZM65 105C56.775 105 50 111.775 50 120C50 128.225 56.775 135 65 135C73.225 135 80 128.225 80 120C80 111.775 73.225 105 65 105ZM65 115C67.815 115 70 117.19 70 120C70 122.815 67.81 125 65 125C62.185 125 60 122.81 60 120C60 117.185 62.19 115 65 115ZM110 115C112.815 115 115 117.19 115 120C115 122.815 112.81 125 110 125C107.185 125 105 122.81 105 120C105 117.185 107.19 115 110 115Z" fill="#D6D6D6"/>
</svg>
