<svg width="183" height="48" viewBox="0 0 183 48" fill="none" xmlns="http://www.w3.org/2000/svg">
<g clip-path="url(#clip0_993_26538)">
<path d="M0 47.2098C0 46.771 40.6541 46.4639 90.7738 46.4639C140.893 46.4639 181.548 46.8149 181.548 47.2098C181.548 47.6046 140.893 47.9556 90.7738 47.9556C40.6541 47.9556 0 47.6485 0 47.2098Z" fill="url(#paint0_radial_993_26538)"/>
<path fill-rule="evenodd" clip-rule="evenodd" d="M177.709 18.3841H178.538V20.6656H179.018V18.3841H179.846V17.9453H177.709V18.3841ZM180.195 20.6656H180.632V18.5596L181.373 20.6656H181.766L182.507 18.5596V20.6656H182.987V17.9453H182.333L181.635 20.0513L180.893 17.9453H180.283V20.6656H180.195Z" fill="#231F20"/>
<path fill-rule="evenodd" clip-rule="evenodd" d="M93.3038 -6.96257e-05H82.3551C81.3519 -6.96257e-05 80.0869 0.833568 79.6507 1.88658C78.124 5.04563 76.9899 7.41492 74.4599 12.8555C73.5002 14.8299 74.3726 16.4972 76.3355 16.4972H87.2406C88.2439 16.4972 89.5089 15.6635 89.9451 14.6105L95.1359 3.64161C96.0955 1.66721 95.2667 -6.96257e-05 93.3038 -6.96257e-05ZM88.0258 3.94874C89.0727 3.94874 89.5089 4.78238 88.9854 5.8354L86.281 11.5831C86.0193 12.1535 85.4086 12.5484 84.8415 12.5484H81.57C80.5667 12.5484 80.0869 11.7147 80.6103 10.6178C81.9626 7.8098 82.5296 6.53741 83.3148 4.87013C83.5765 4.34362 84.1872 3.94874 84.7543 3.94874H88.0258ZM52.0391 16.4533L59.8471 -6.96257e-05H62.0281L68.0913 10.7933L73.1949 -6.96257e-05H78.2985L70.4904 16.4533H64.8634L60.6323 8.95057L57.0554 16.4533H51.9518H52.0391ZM32.3227 -6.96257e-05C36.423 -6.96257e-05 38.5168 4.08037 36.9464 8.81894C34.9399 14.9177 31.0141 16.4533 27.8298 16.4533H15.3108L17.928 10.925C19.9782 9.12607 23.4242 6.49353 27.2191 4.91401L23.5114 12.68H26.4776C28.0915 12.68 29.4874 12.68 30.9268 8.81894C31.6684 6.71291 31.0141 4.43137 29.3129 4.16812C26.8265 3.64161 23.3805 4.03649 20.9814 4.47525L23.1624 -6.96257e-05H32.3227ZM45.3652 7.10779L44.7109 5.74765L42.0064 -0.0439453H36.9028L42.0064 10.6178L39.2583 16.4533H45.6705L48.4186 10.6178L58.8438 -6.96257e-05H52.388L45.4088 7.10779H45.3652Z" fill="url(#paint1_linear_993_26538)"/>
<path fill-rule="evenodd" clip-rule="evenodd" d="M98.8872 35.1446L107.044 17.9453H98.0584L81.57 35.1446H75.3323L77.8623 39.6199H84.6234L97.4914 26.2378L91.1228 39.6199H167.371L169.508 35.1446H98.8872Z" fill="#ED3326"/>
<path fill-rule="evenodd" clip-rule="evenodd" d="M155.07 28.7387L154.11 30.757C153.151 32.7314 154.023 34.3987 155.986 34.3987H168.025C169.028 34.3987 170.25 33.5651 170.73 32.512L172.998 27.6857C173.39 26.9398 172.998 25.9307 172.038 25.7113L163.489 23.7808C162.922 23.6492 162.878 23.1226 163.052 22.6839L163.183 22.4206C163.314 22.1135 163.707 21.8064 164.187 21.8064H168.81C169.77 21.8064 170.25 22.5961 169.857 23.5614H174.961L175.92 21.587C176.88 19.6126 176.051 17.9453 174.045 17.9453H162.006C161.002 17.9453 159.737 18.779 159.301 19.832L157.033 24.5267C157.033 24.6144 156.422 25.9307 158.036 26.3256L166.455 28.2561C167.022 28.3877 167.327 28.8704 167.066 29.4407L166.891 29.7917C166.673 30.3183 166.28 30.4938 165.713 30.4938H161.177C160.261 30.4938 159.563 30.0111 159.999 29.0459L160.13 28.7387H155.026H155.07ZM154.459 17.9453C156.422 17.9453 157.251 19.6126 156.291 21.587L155.332 23.5614H150.228C150.621 22.64 150.141 21.8064 149.181 21.8064H145.91C145.386 21.8064 144.732 22.289 144.47 22.7716C143.685 24.4389 143.074 25.7113 141.766 28.5194C141.242 29.5724 141.766 30.4499 142.725 30.4499H145.997C146.564 30.4499 147.175 30.0111 147.436 29.4846L147.829 28.7387H152.933L151.144 32.5559C150.621 33.5651 149.443 34.4426 148.44 34.4426H137.535C135.528 34.4426 134.699 32.7753 135.615 30.8009C138.189 25.3603 139.367 22.991 140.85 19.832C141.33 18.8228 142.551 17.9453 143.554 17.9453H154.503H154.459ZM131.689 34.3987L139.497 17.9453H134.394L126.542 34.3987H131.689ZM125.103 17.9453H132.213L124.361 34.3987H119.258L123.925 24.7022L113.718 34.3109L111.101 24.6583L106.433 34.3987H101.33L109.181 17.9453H114.721L116.815 25.6674L125.059 17.9453H125.103ZM61.9843 34.3987H67.1315L70.7083 26.8521L74.9395 34.3987H80.5229L88.3745 17.9453H83.271L78.1674 28.7387L72.1042 17.9453H69.8796L62.0279 34.3987H61.9843ZM55.354 25.0532L62.3769 17.9453H68.789L58.4074 28.6071L55.6593 34.3987H49.2472L51.9516 28.6071L46.8481 17.9453H51.9516L54.6997 23.7369L55.3104 25.097L55.354 25.0532ZM42.3115 17.9453H33.1513L31.0575 22.4206C33.4566 21.9819 36.9463 21.6309 39.389 22.0696C41.0466 22.4206 41.7445 24.6583 40.9593 26.7643C39.5198 30.5815 38.2112 30.6254 36.5537 30.6254H33.5875L37.2952 22.8155C33.4566 24.4389 30.0106 27.1153 28.0041 28.8704L25.3433 34.3987H37.8623C41.0466 34.3987 44.9724 32.863 46.9789 26.7643C48.5492 22.0258 46.4555 17.9453 42.3115 17.9453Z" fill="url(#paint2_linear_993_26538)"/>
<path d="M23.4677 42.0772H21.7229L20.4143 45.2363H19.8036L21.1122 42.0772H19.3674L19.5855 41.5068H23.6858L23.4677 42.0772Z" fill="#5F6062"/>
<path d="M27.0009 45.2363H26.3902L27.0881 43.569H24.1655L23.4676 45.2363H22.8569L24.4273 41.5068H25.0379L24.3836 42.9986H27.3062L27.9605 41.5068H28.5712L27.0009 45.2363Z" fill="#5F6062"/>
<path d="M32.061 45.2363H28.2224L29.7927 41.5068H33.5005L33.2824 42.0772H30.1853L29.7927 43.0425H31.9301L31.712 43.6129H29.5746L29.0948 44.7098H32.3227L32.1046 45.2801L32.061 45.2363Z" fill="#5F6062"/>
<path d="M37.9497 45.2363H34.5037L36.074 41.5068H36.6847L35.3761 44.6659H38.2114L37.9933 45.2363H37.9497Z" fill="#5F6062"/>
<path d="M42.5297 45.2363H38.6912L40.2615 41.5068H43.9692L43.7511 42.0772H40.6541L40.2615 43.0425H42.3989L42.1808 43.6129H40.0434L39.5636 44.7098H42.7915L42.5734 45.2801L42.5297 45.2363Z" fill="#5F6062"/>
<path d="M47.546 45.2363H46.8917L46.8045 44.4026H44.3181L43.533 45.2363H42.8787L46.3683 41.5068H47.1534L47.546 45.2363ZM46.7609 43.8322L46.5864 42.0333L44.8852 43.8322H46.7609Z" fill="#5F6062"/>
<path d="M52.1262 41.5068C52.7805 41.5068 53.2167 41.6823 53.4348 42.0333C53.6529 42.3844 53.6529 42.8231 53.4348 43.4374C53.2167 43.9639 52.8241 44.4026 52.3007 44.7536C51.7772 45.0608 51.2538 45.2363 50.7303 45.2363H48.2876L49.8579 41.5068H52.1698H52.1262ZM50.9484 44.6659C51.2974 44.6659 51.6464 44.5343 51.9953 44.3149C52.3443 44.0955 52.5624 43.7884 52.7369 43.3935C52.9113 42.9986 52.9113 42.6915 52.7369 42.4282C52.606 42.165 52.3007 42.0772 51.9081 42.0772H50.1633L49.0728 44.6659H50.9484Z" fill="#5F6062"/>
<path d="M57.4917 45.2363H53.6531L55.2234 41.5068H58.9311L58.713 42.0772H55.616L55.2234 43.0425H57.3608L57.1427 43.6129H55.0053L54.5255 44.7098H57.7534L57.5353 45.2801L57.4917 45.2363Z" fill="#5F6062"/>
<path d="M62.5514 45.2363H61.8535L61.4609 43.8322H59.6288L59.0182 45.2363H58.4075L59.9778 41.5068H62.8567C63.2493 41.5068 63.511 41.5946 63.6419 41.814C63.7728 42.0333 63.7728 42.2966 63.6419 42.6476C63.511 42.9547 63.2929 43.218 63.0748 43.3935C62.8131 43.569 62.5514 43.7006 62.2461 43.7445L62.6386 45.1924L62.5514 45.2363ZM62.028 43.2619C62.5078 43.2619 62.8131 43.0864 62.9876 42.6915C63.1621 42.2966 62.9876 42.0772 62.4642 42.0772H60.3268L59.8469 43.2619H62.028Z" fill="#5F6062"/>
<path d="M65.6485 45.2363H65.0378L66.6082 41.5068H67.2189L65.6485 45.2363Z" fill="#5F6062"/>
<path d="M71.0138 45.2363H70.2723L68.7455 42.2088L67.4806 45.2363H66.8699L68.4402 41.5068H69.1817L70.7085 44.5343L71.9734 41.5068H72.5841L71.0138 45.2363Z" fill="#5F6062"/>
<path d="M78.2548 41.5068C78.6474 41.5068 78.8655 41.5945 78.9964 41.8139C79.1273 42.0333 79.1273 42.2965 78.9964 42.6475C78.8219 42.9985 78.6038 43.3057 78.2985 43.4812C77.9931 43.6567 77.6005 43.7883 77.1643 43.7883H74.9833L74.3726 45.1923H73.762L75.3323 41.4629H78.2548V41.5068ZM77.4261 43.2618C77.9059 43.2618 78.2112 43.0863 78.3857 42.6914C78.5602 42.2965 78.3857 42.0772 77.9059 42.0772H75.7685L75.2887 43.2618H77.4697H77.4261Z" fill="#5F6062"/>
<path d="M82.7913 45.2363H82.0934L81.7008 43.8322H79.8251L79.2144 45.2363H78.6038L80.1741 41.5068H83.053C83.4456 41.5068 83.7073 41.5946 83.8382 41.814C83.9691 42.0333 83.9691 42.2966 83.8382 42.6476C83.7073 42.9547 83.4892 43.218 83.2711 43.3935C83.0094 43.569 82.7477 43.7006 82.4423 43.7445L82.8349 45.1924L82.7913 45.2363ZM82.2679 43.2619C82.7477 43.2619 83.053 43.0864 83.2275 42.6915C83.402 42.2966 83.2275 42.0772 82.7477 42.0772H80.6103L80.1305 43.2619H82.3115H82.2679Z" fill="#5F6062"/>
<path d="M87.5896 45.2363H83.751L85.3213 41.5068H89.029L88.8109 42.0772H85.7139L85.3213 43.0425H87.4587L87.2406 43.6129H85.1032L84.6234 44.7098H87.8513L87.6332 45.2801L87.5896 45.2363Z" fill="#5F6062"/>
<path d="M93.5219 45.2363H92.9113L94.1762 42.2088L91.2537 44.622L90.3813 42.2088L89.1163 45.2363H88.5056L90.0759 41.5068H90.8175L91.6463 43.7445L94.3507 41.5068H95.0923L93.5219 45.2363Z" fill="#5F6062"/>
<path d="M95.3539 45.2363H94.7432L96.3135 41.5068H96.9242L95.3539 45.2363Z" fill="#5F6062"/>
<path d="M101.243 44.0517C101.068 44.4466 100.763 44.7537 100.283 44.9731C99.8033 45.2363 99.2362 45.368 98.6255 45.368C98.0148 45.368 97.535 45.2363 97.2733 44.9731C97.0116 44.7098 96.9679 44.4027 97.0988 44.0517L98.1457 41.5508H98.7564L97.7531 43.9201C97.6222 44.2272 97.6659 44.4466 97.8403 44.5782C98.0148 44.7537 98.3638 44.7976 98.8436 44.7976C99.3234 44.7976 99.716 44.7098 100.021 44.5782C100.327 44.4027 100.545 44.1833 100.676 43.9201L101.679 41.5508H102.29L101.243 44.0517Z" fill="#5F6062"/>
<path d="M107 45.2363H106.39L107.655 42.2088L104.732 44.622L103.86 42.2088L102.595 45.2363H101.984L103.554 41.5068H104.296L105.125 43.7445L107.829 41.5068H108.571L107 45.2363Z" fill="#5F6062"/>
<path d="M114.198 41.5068C114.591 41.5068 114.809 41.5945 114.94 41.8139C115.07 42.0333 115.07 42.2965 114.94 42.6475C114.765 42.9985 114.547 43.3057 114.242 43.4812C113.936 43.6567 113.544 43.7883 113.107 43.7883H110.926L110.316 45.1923H109.705L111.275 41.4629H114.198V41.5068ZM113.369 43.2618C113.849 43.2618 114.154 43.0863 114.329 42.6914C114.503 42.2965 114.329 42.0772 113.849 42.0772H111.712L111.232 43.2618H113.413H113.369Z" fill="#5F6062"/>
<path d="M118.385 45.2363H114.547L116.117 41.5068H119.825L119.607 42.0772H116.51L116.117 43.0425H118.255L118.036 43.6129H115.899L115.419 44.7098H118.647L118.429 45.2801L118.385 45.2363Z" fill="#5F6062"/>
<path d="M123.489 45.2363H122.791L122.398 43.8322H120.566L119.956 45.2363H119.345L120.915 41.5068H123.794C124.187 41.5068 124.449 41.5946 124.579 41.814C124.71 42.0333 124.71 42.2966 124.579 42.6476C124.449 42.9547 124.23 43.218 124.012 43.3935C123.751 43.569 123.489 43.7006 123.184 43.7445L123.576 45.1924L123.489 45.2363ZM122.965 43.2619C123.445 43.2619 123.751 43.0864 123.925 42.6915C124.1 42.2966 123.925 42.0772 123.445 42.0772H121.308L120.828 43.2619H123.009H122.965Z" fill="#5F6062"/>
<path d="M129.465 42.0773H126.368L125.975 43.0426H128.113L127.895 43.6129H125.757L125.059 45.2802H124.449L126.019 41.5508H129.727L129.509 42.1212L129.465 42.0773Z" fill="#5F6062"/>
<path d="M134.176 43.3495C133.914 43.9637 133.478 44.4464 132.824 44.8412C132.257 45.1923 131.646 45.3239 130.992 45.3239C130.337 45.3239 129.857 45.1484 129.596 44.8412C129.247 44.4464 129.203 43.9637 129.465 43.3495C129.727 42.7352 130.163 42.2526 130.817 41.9016C131.384 41.5506 131.995 41.4189 132.649 41.4189C133.303 41.4189 133.74 41.5944 134.045 41.9016C134.394 42.2965 134.438 42.7791 134.176 43.3495ZM133.522 43.3495C133.696 42.9107 133.652 42.5597 133.434 42.2965C133.216 42.0771 132.867 41.9455 132.431 41.9455C131.995 41.9455 131.428 42.0771 131.035 42.3403C130.599 42.6036 130.294 42.9546 130.119 43.3495C129.945 43.7882 129.945 44.0954 130.163 44.3586C130.381 44.6219 130.73 44.7535 131.253 44.7535C131.777 44.7535 132.257 44.6219 132.649 44.3586C133.085 44.0954 133.391 43.7444 133.565 43.3495H133.522Z" fill="#5F6062"/>
<path d="M138.582 45.2363H137.884L137.491 43.8322H135.615L135.005 45.2363H134.394L135.964 41.5068H138.843C139.236 41.5068 139.498 41.5946 139.628 41.814C139.759 42.0333 139.759 42.2966 139.628 42.6476C139.498 42.9547 139.28 43.218 139.018 43.3935C138.8 43.569 138.494 43.7006 138.189 43.7445L138.582 45.1924V45.2363ZM138.058 43.2619C138.538 43.2619 138.843 43.0864 139.018 42.6915C139.192 42.2966 139.018 42.0772 138.494 42.0772H136.357L135.877 43.2619H138.058Z" fill="#5F6062"/>
<path d="M144.558 45.2363H143.947L145.212 42.2088L142.289 44.622L141.417 42.2088L140.152 45.2363H139.541L141.112 41.5068H141.853L142.682 43.7445L145.386 41.5068H146.128L144.558 45.2363Z" fill="#5F6062"/>
<path d="M149.923 45.2363H149.269L149.181 44.4026H146.695L145.91 45.2363H145.256L148.745 41.5068H149.53L149.923 45.2363ZM149.138 43.8322L148.963 42.0333L147.262 43.8322H149.138Z" fill="#5F6062"/>
<path d="M154.765 45.2363H154.023L152.497 42.2088L151.232 45.2363H150.621L152.191 41.5068H152.933L154.459 44.5343L155.724 41.5068H156.335L154.765 45.2363Z" fill="#5F6062"/>
<path d="M161.482 42.3403L160.828 42.5597C160.61 42.1648 160.174 41.9455 159.519 41.9455C158.865 41.9455 158.56 42.0771 158.124 42.3403C157.687 42.6036 157.382 42.9546 157.208 43.3495C157.033 43.7882 157.033 44.0954 157.251 44.3586C157.469 44.6219 157.818 44.7535 158.385 44.7535C158.952 44.7535 159.65 44.5341 160.174 44.1392L160.566 44.4464C160.174 44.7535 159.781 44.9729 159.389 45.1045C158.996 45.2361 158.56 45.3239 158.124 45.3239C157.687 45.3239 156.989 45.1484 156.728 44.8412C156.379 44.4464 156.379 43.9637 156.597 43.3495C156.859 42.7352 157.295 42.2526 157.949 41.9016C158.516 41.5506 159.127 41.4189 159.781 41.4189C160.697 41.4189 161.264 41.7261 161.482 42.3842V42.3403Z" fill="#5F6062"/>
<path d="M165.146 45.2363H161.308L162.878 41.5068H166.586L166.368 42.0772H163.271L162.878 43.0425H165.016L164.797 43.6129H162.66L162.18 44.7098H165.408L165.19 45.2801L165.146 45.2363Z" fill="#5F6062"/>
</g>
<defs>
<radialGradient id="paint0_radial_993_26538" cx="0" cy="0" r="1" gradientUnits="userSpaceOnUse" gradientTransform="translate(89.029 -26.7647) scale(89.3779 0)">
<stop stop-color="#E6ACAB"/>
<stop offset="0.1" stop-color="#E86D6F"/>
<stop offset="0.2" stop-color="#CA373B"/>
<stop offset="0.3" stop-color="#9A5758"/>
<stop offset="0.4" stop-color="#7B7C7B"/>
<stop offset="0.5" stop-color="#959695"/>
<stop offset="0.6" stop-color="#C0C1C0"/>
<stop offset="0.7" stop-color="white"/>
</radialGradient>
<linearGradient id="paint1_linear_993_26538" x1="55.4414" y1="16.6727" x2="55.4414" y2="0.175434" gradientUnits="userSpaceOnUse">
<stop stop-color="#077EC0"/>
<stop offset="0.6" stop-color="#077EC0"/>
<stop offset="1" stop-color="#004D7A"/>
</linearGradient>
<linearGradient id="paint2_linear_993_26538" x1="100.806" y1="34.3548" x2="100.806" y2="17.9014" gradientUnits="userSpaceOnUse">
<stop stop-color="#595A5C"/>
<stop offset="0.6" stop-color="#595A5C"/>
<stop offset="1" stop-color="#231F20"/>
</linearGradient>
<clipPath id="clip0_993_26538">
<rect width="182.943" height="48" fill="white"/>
</clipPath>
</defs>
</svg>
