<svg width="48" height="48" viewBox="0 0 48 48" fill="none" xmlns="http://www.w3.org/2000/svg">
<circle cx="24" cy="24" r="24" fill="#1E1E1E"/>
<g clip-path="url(#clip0_993_34448)">
<path d="M24.0767 19.3614C23.7492 20.8677 23.4699 22.3788 23.6 23.9377C23.7974 26.3956 25.1506 27.7823 27.5102 27.9019C29.9854 28.0262 31.8009 26.6921 32.2487 24.4111C33.0722 20.2174 30.0143 15.3303 25.8729 14.2878C23.0028 13.5657 20.5806 14.3404 18.7411 16.674C17.229 18.5867 16.5644 20.8342 16.3237 23.2156C16.0732 25.6687 16.3429 28.031 17.6383 30.202C17.6624 30.245 17.6576 30.3024 17.6865 30.4411C17.5275 30.3072 17.412 30.2355 17.3301 30.135C13.6318 25.7692 12.1389 20.7768 13.5451 15.2059C14.5275 11.3278 17.1038 8.7121 21.1344 7.82267C24.4186 7.1006 27.4043 8.04264 30.0673 9.9554C33.2792 12.2603 34.9358 15.5072 35.5136 19.3327C35.8652 21.6615 35.7207 23.9664 34.8347 26.1804C33.65 29.1452 31.0159 30.9766 27.9869 30.9623C25.295 30.948 23.2677 29.1834 22.8295 26.4721C22.425 23.9855 23.0269 21.6472 23.9033 19.3518C23.9274 19.2801 23.9563 19.2132 23.9852 19.1462C24.1826 19.1462 24.12 19.261 24.0815 19.3662L24.0767 19.3614Z" fill="white"/>
<path d="M24.0768 19.3611C24.0431 19.2894 24.0142 19.2177 23.9805 19.1412C24.0575 18.8495 24.1635 18.5673 24.4428 18.1943C24.2935 18.6821 24.2598 19.0407 24.0768 19.3611Z" fill="#B1DCC4"/>
<path d="M15.5098 19.9829C15.7361 17.7928 16.4585 15.7988 17.9609 14.1394C19.3333 12.6284 21.1007 11.9206 23.1232 11.8154C26.7926 11.6242 30.2454 13.1783 32.0416 16.999C32.0898 17.1186 32.032 17.1329 31.9308 17.1138C30.6595 14.9428 28.897 13.36 26.4267 12.6618C21.717 11.3325 17.7442 13.5082 16.1117 18.2949C15.9095 18.8879 15.7795 19.5095 15.6157 20.1168C15.5098 20.1216 15.4568 20.0881 15.5098 19.9781V19.9829Z" fill="#0C9648"/>
<path d="M16.0733 21.8815C16.3092 19.4953 17.0846 17.3195 18.7363 15.5407C20.7877 13.3314 23.3592 12.7576 26.2004 13.5992C28.7382 14.35 30.4622 16.0906 31.5986 18.4337C31.6564 18.5628 31.5842 18.5724 31.4831 18.5581C30.6115 17.0087 29.4846 15.6985 27.9147 14.8043C24.2694 12.7289 20.2628 13.6996 17.9947 17.2048C17.0412 18.6776 16.5259 20.313 16.184 22.0154C16.0781 22.0249 16.0155 21.9962 16.0733 21.8767V21.8815Z" fill="#0C9648"/>
<path d="M16.0685 19.5428C16.892 16.3103 18.4619 13.618 21.9724 12.8099C25.2566 12.0544 28.1459 13.0155 30.4333 15.5165C31.7672 16.9797 32.557 18.7203 32.8363 20.6809C32.7978 20.7192 32.7592 20.7144 32.7255 20.6761C32.0562 17.9313 30.6356 15.6838 28.1893 14.1775C24.4331 11.8631 19.9499 12.8912 17.5662 16.5828C16.945 17.544 16.5116 18.5817 16.1937 19.6719C16.0878 19.6911 16.03 19.6624 16.0733 19.5428H16.0685Z" fill="#0C9648"/>
<path d="M31.4878 18.5628C31.5263 18.5198 31.5648 18.4767 31.6034 18.4385C31.9356 18.9549 32.1283 19.524 32.2824 20.1121C32.3257 20.2317 32.2727 20.2556 32.1668 20.2317C31.9405 19.677 31.7189 19.1175 31.4926 18.5628H31.4878Z" fill="#29A65E"/>
<path d="M16.0684 19.543C16.1069 19.586 16.1503 19.629 16.1888 19.6721C16.0781 20.2316 15.9673 20.7863 15.8565 21.3457C15.8228 21.3888 15.7843 21.3888 15.741 21.3553C15.7602 20.7337 15.8469 20.1264 16.0636 19.543H16.0684Z" fill="#49B377"/>
<path d="M32.1572 20.2319C32.1958 20.1936 32.2343 20.1506 32.2728 20.1123C32.4991 20.6527 32.6099 21.2169 32.6051 21.8003C32.5665 21.8338 32.528 21.8338 32.4991 21.786C32.4654 21.2504 32.268 20.7483 32.1572 20.2319Z" fill="#67C28E"/>
<path d="M31.9309 17.1138C31.9694 17.0755 32.0031 17.0373 32.0417 16.999C32.3258 17.4055 32.4558 17.8741 32.6099 18.338C32.6629 18.4575 32.6099 18.4623 32.5136 18.4384C32.321 17.9984 32.1283 17.5585 31.9357 17.1186L31.9309 17.1138Z" fill="#3BAD6B"/>
<path d="M15.741 21.3553C15.7795 21.3553 15.8181 21.3505 15.8566 21.3457C15.8084 21.8765 15.7603 22.4025 15.7121 22.9333C15.6784 22.4073 15.505 21.8765 15.741 21.3553Z" fill="#9CD4B4"/>
<path d="M15.5194 20.8961C15.4761 21.2882 15.4327 21.6851 15.3942 22.0772C15.2979 21.6421 15.2256 21.2117 15.399 20.7861C15.4761 20.7861 15.4809 20.8579 15.5194 20.8961Z" fill="#A0D5B7"/>
<path d="M16.0684 23.1105C16.1502 23.407 16.0202 23.6748 15.9094 23.9521C15.8805 23.5648 15.7939 23.1823 15.9576 22.7949C16.1021 22.8619 15.9865 23.0197 16.0684 23.1105Z" fill="#B7DFC8"/>
<path d="M32.5088 18.4334C32.5425 18.4 32.5762 18.3665 32.6051 18.333C32.8218 18.6677 32.8074 19.0599 32.8555 19.4424C32.7399 19.1077 32.6244 18.7682 32.5088 18.4334Z" fill="#8DCEA9"/>
<path d="M16.0685 23.1107C16.03 23.0055 15.9963 22.9003 15.9578 22.7951C16.0011 22.489 15.9289 22.1734 16.0733 21.877C16.1119 21.9248 16.1456 21.9678 16.1841 22.0156C16.1456 22.3791 16.107 22.7425 16.0685 23.1059V23.1107Z" fill="#1EA153"/>
<path d="M32.7207 20.6768C32.7592 20.6911 32.7929 20.6911 32.8315 20.6815C33.0241 20.9589 32.923 21.2697 32.9567 21.571C32.9807 21.6762 32.947 21.7096 32.8459 21.6666C32.8074 21.3367 32.764 21.0067 32.7255 20.6768H32.7207Z" fill="#78C79A"/>
<path d="M32.8411 21.666C32.8796 21.6325 32.9181 21.6038 32.9518 21.5703C33.1156 21.8764 33.0433 22.1967 32.9711 22.5171C32.9277 22.235 32.8844 21.9481 32.8411 21.666Z" fill="#C5E5D1"/>
<path d="M32.499 21.791C32.5327 21.791 32.5713 21.7958 32.605 21.8054C32.8265 22.1066 32.6724 22.4318 32.6387 22.7474C32.5905 22.427 32.5472 22.1114 32.499 21.791Z" fill="#AFDBC2"/>
<path d="M15.5196 20.8966C15.481 20.8584 15.4377 20.8249 15.3992 20.7867C15.4377 20.5189 15.3751 20.2367 15.5099 19.9785C15.5436 20.0263 15.5822 20.0742 15.6159 20.1172C15.5822 20.3754 15.5485 20.6336 15.5196 20.8919V20.8966Z" fill="#179D4D"/>
<path d="M36.0626 38.1786C36.5441 38.695 36.9583 39.1445 37.3772 39.594C37.5699 39.7996 37.7095 40.0339 37.4735 40.273C37.2135 40.536 36.9679 40.4117 36.7512 40.1774C36.2311 39.6179 35.711 39.0536 35.191 38.4989C34.9743 38.2694 33.5585 38.0925 33.3418 38.2598C33.231 38.3411 33.2647 38.4607 33.2647 38.5659C33.2647 38.9724 33.2551 39.3836 33.2647 39.7901C33.2744 40.1104 33.1684 40.3639 32.8217 40.3734C32.4702 40.383 32.3642 40.1391 32.3691 39.814C32.3787 38.102 32.3787 36.3949 32.3691 34.683C32.3691 34.31 32.5183 34.1235 32.8939 34.1283C33.8089 34.1378 34.7335 34.0996 35.6436 34.1761C37.1027 34.3004 37.9647 35.5868 37.5458 36.9114C37.3291 37.5999 36.7897 37.9347 36.0722 38.1642L36.0626 38.1786Z" fill="white"/>
<path d="M11.3684 37.2223C11.3684 36.4046 11.3733 35.5869 11.3684 34.7692C11.3636 34.3532 11.5514 34.1523 11.9704 34.1523C13.2417 34.1523 14.513 34.1523 15.7843 34.1523C16.0588 34.1523 16.2947 34.2241 16.2899 34.5349C16.2851 34.8601 16.0443 34.9557 15.7458 34.9509C14.7152 34.9509 13.6895 34.9605 12.659 34.9414C12.346 34.9366 12.2545 35.0226 12.2497 35.343C12.2208 36.8589 12.2063 36.8589 13.7184 36.8589C14.3348 36.8589 14.9512 36.8589 15.5676 36.8589C15.871 36.8589 16.0925 36.9545 16.0829 37.2941C16.0732 37.624 15.8276 37.6575 15.5676 37.6575C14.6141 37.6575 13.6606 37.667 12.7072 37.6527C12.3845 37.6479 12.2545 37.7101 12.2497 38.0735C12.2256 39.5224 12.2112 39.5224 13.6799 39.5224C14.3733 39.5224 15.062 39.5272 15.7554 39.5224C16.0588 39.5224 16.2948 39.6085 16.2996 39.9337C16.3044 40.2827 16.0395 40.3306 15.7506 40.3306C14.4985 40.3306 13.2465 40.3306 11.9896 40.3306C11.537 40.3306 11.3588 40.1106 11.3636 39.6754C11.3781 38.8577 11.3636 38.04 11.3636 37.2223H11.3684Z" fill="white"/>
<path d="M26.7783 37.8438C26.6724 37.9538 26.5809 38.0446 26.499 38.1403C25.9452 38.7715 25.3963 39.4027 24.8377 40.0291C24.6161 40.2778 24.3754 40.6173 24.0094 40.2826C23.6482 39.9478 23.9901 39.68 24.202 39.4362C24.775 38.7763 25.3481 38.1164 25.9452 37.4708C26.1523 37.246 26.1523 37.1074 25.9452 36.8778C25.3529 36.2371 24.7847 35.5676 24.2116 34.9077C24.0238 34.6925 23.8071 34.4678 24.1009 34.1952C24.3994 33.9226 24.6402 34.0804 24.8569 34.3339C25.4155 34.9842 25.9838 35.625 26.5279 36.2849C26.7253 36.524 26.8313 36.524 27.0239 36.2849C27.5681 35.625 28.1363 34.9842 28.6901 34.3291C28.8875 34.0948 29.1187 33.9226 29.4028 34.1522C29.7254 34.4104 29.5617 34.6638 29.3402 34.9077C28.7575 35.558 28.1893 36.2275 27.5921 36.8683C27.3803 37.093 27.3803 37.2413 27.5873 37.466C28.2134 38.1546 28.8249 38.8576 29.4365 39.5557C29.6291 39.7757 29.8169 40.0148 29.5424 40.2778C29.2439 40.5551 28.9887 40.3686 28.7768 40.1295C28.1989 39.4696 27.6307 38.8049 27.0576 38.145C26.9758 38.0494 26.8843 37.9586 26.7735 37.839L26.7783 37.8438Z" fill="white"/>
<path d="M17.1133 37.165C17.1133 36.3664 17.1133 35.5726 17.1133 34.774C17.1133 34.4297 17.094 34.0615 17.59 34.0615C18.0812 34.0615 18.0138 34.4345 18.0138 34.7406C18.0138 36.1321 18.0331 37.5236 18.0042 38.9104C17.9945 39.3742 18.0764 39.5655 18.6061 39.532C19.497 39.4794 20.3975 39.5177 21.2932 39.5177C21.5821 39.5177 21.9048 39.5129 21.9144 39.8954C21.9289 40.3163 21.5966 40.3258 21.2836 40.3258C20.1086 40.3258 18.9288 40.3115 17.7538 40.3306C17.2578 40.3402 17.094 40.1298 17.1037 39.6659C17.1229 38.8339 17.1085 37.997 17.1085 37.165H17.1133Z" fill="white"/>
<path d="M22.4346 37.1887C22.4346 36.3184 22.4346 35.4481 22.4346 34.5778C22.4346 34.2669 22.449 33.9466 22.868 33.937C23.311 33.9226 23.3688 34.243 23.3688 34.5778C23.3688 36.2992 23.3688 38.0255 23.3688 39.747C23.3688 40.0817 23.3254 40.4165 22.892 40.4212C22.4394 40.4212 22.4346 40.077 22.4346 39.747C22.4346 38.8958 22.4346 38.0446 22.4346 37.1887Z" fill="white"/>
<path d="M31.1652 37.1837C31.1652 38.0732 31.1652 38.9626 31.1652 39.852C31.1652 40.1629 31.0978 40.4211 30.7222 40.4211C30.3562 40.4211 30.2502 40.182 30.2502 39.8664C30.2502 38.0684 30.2502 36.2752 30.2502 34.4772C30.2502 34.1568 30.3754 33.9272 30.7366 33.9368C31.0737 33.9464 31.1652 34.1711 31.1652 34.4676C31.1652 35.3762 31.1652 36.2799 31.1652 37.1885V37.1837Z" fill="white"/>
<path d="M34.4783 37.4035C33.6661 37.4163 33.26 37.0241 33.26 36.2272C33.26 35.3792 33.695 34.9568 34.565 34.96C34.9551 34.96 35.3451 34.9361 35.7304 35.0556C36.3757 35.2612 36.785 35.7824 36.732 36.3563C36.6839 36.9158 36.2312 37.327 35.5378 37.3939C35.1862 37.4274 34.8299 37.3987 34.4783 37.3987V37.4035Z" fill="#0A9748"/>
</g>
<defs>
<clipPath id="clip0_993_34448">
<rect width="26.2737" height="32.8421" fill="white" transform="translate(11.3684 7.5791)"/>
</clipPath>
</defs>
</svg>
