<svg width="16" height="16" viewBox="0 0 16 16" fill="none" xmlns="http://www.w3.org/2000/svg">
<path d="M14.0001 14L11.1048 11.1047M11.1048 11.1047C11.6001 10.6094 11.9929 10.0215 12.261 9.37436C12.529 8.72728 12.6669 8.03373 12.6669 7.33333C12.6669 6.63293 12.529 5.93939 12.261 5.2923C11.9929 4.64522 11.6001 4.05726 11.1048 3.562C10.6095 3.06674 10.0216 2.67388 9.3745 2.40585C8.72742 2.13782 8.03387 1.99986 7.33347 1.99986C6.63307 1.99986 5.93953 2.13782 5.29244 2.40585C4.64535 2.67388 4.0574 3.06674 3.56214 3.562C2.56192 4.56222 2 5.91881 2 7.33333C2 8.74786 2.56192 10.1044 3.56214 11.1047C4.56236 12.1049 5.91895 12.6668 7.33347 12.6668C8.748 12.6668 10.1046 12.1049 11.1048 11.1047ZM7.33347 5.33333V9.33333M5.33347 7.33333H9.33347" stroke="#333333" stroke-linecap="round" stroke-linejoin="round"/>
</svg>
