<svg width="101" height="100" viewBox="0 0 101 100" fill="none" xmlns="http://www.w3.org/2000/svg">
<path d="M58.8337 62.5C58.8337 67.125 55.1253 70.8334 50.5003 70.8334C48.2902 70.8334 46.1706 69.9554 44.6078 68.3926C43.045 66.8298 42.167 64.7102 42.167 62.5C42.167 57.875 45.8753 54.1667 50.5003 54.1667C52.7105 54.1667 54.8301 55.0447 56.3929 56.6075C57.9557 58.1703 58.8337 60.2899 58.8337 62.5ZM55.042 83.3334C55.542 86.3334 56.5837 89.125 58.042 91.6667H25.5003C23.2902 91.6667 21.1706 90.7887 19.6078 89.2259C18.045 87.6631 17.167 85.5435 17.167 83.3334V41.6667C17.167 37.0417 20.8753 33.3334 25.5003 33.3334H29.667V25C29.667 13.5 39.0003 4.16669 50.5003 4.16669C62.0003 4.16669 71.3337 13.5 71.3337 25V33.3334H75.5003C77.7105 33.3334 79.8301 34.2113 81.3929 35.7741C82.9557 37.3369 83.8337 39.4565 83.8337 41.6667V54.5417C82.4587 54.3334 81.0837 54.1667 79.667 54.1667C78.2503 54.1667 76.8753 54.3334 75.5003 54.5417V41.6667H25.5003V83.3334H55.042ZM38.0003 33.3334H63.0003V25C63.0003 18.0834 57.417 12.5 50.5003 12.5C43.5837 12.5 38.0003 18.0834 38.0003 25V33.3334ZM94.417 70.3334L88.5003 64.4584L79.667 73.2917L70.8337 64.4584L64.9587 70.3334L73.792 79.1667L64.9587 88L70.8337 93.9167L79.667 85.0417L88.5003 93.9167L94.417 88L85.542 79.1667L94.417 70.3334Z" fill="#D6D6D6"/>
</svg>
