<svg width="24" height="24" viewBox="0 0 24 24" fill="none" xmlns="http://www.w3.org/2000/svg">
<path fill-rule="evenodd" clip-rule="evenodd" d="M15.1373 3.47001C14.9967 3.32956 14.8061 3.25067 14.6073 3.25067C14.4086 3.25067 14.2179 3.32956 14.0773 3.47001L4.88432 12.662C4.79033 12.7561 4.72303 12.8734 4.68932 13.002L3.68932 16.832C3.6563 16.9586 3.65697 17.0916 3.69125 17.2178C3.72552 17.3441 3.79222 17.4591 3.88471 17.5516C3.9772 17.6441 4.09228 17.7108 4.21851 17.7451C4.34474 17.7794 4.47775 17.78 4.60432 17.747L8.43232 16.747C8.56139 16.7132 8.67911 16.6455 8.77332 16.551L17.9653 7.35901C18.1058 7.21839 18.1847 7.02776 18.1847 6.82901C18.1847 6.63026 18.1058 6.43964 17.9653 6.29901L15.1373 3.47001ZM6.08832 13.579L14.6073 5.06101L16.3743 6.82801L7.85632 15.347L5.46332 15.972L6.08832 13.579Z" fill="#333333"/>
<path d="M4 19.25C3.80109 19.25 3.61032 19.329 3.46967 19.4697C3.32902 19.6103 3.25 19.8011 3.25 20C3.25 20.1989 3.32902 20.3897 3.46967 20.5303C3.61032 20.671 3.80109 20.75 4 20.75H19C19.1989 20.75 19.3897 20.671 19.5303 20.5303C19.671 20.3897 19.75 20.1989 19.75 20C19.75 19.8011 19.671 19.6103 19.5303 19.4697C19.3897 19.329 19.1989 19.25 19 19.25H4Z" fill="#333333"/>
</svg>
