<svg width="21" height="16" viewBox="0 0 21 16" fill="none" xmlns="http://www.w3.org/2000/svg">
<g clip-path="url(#clip0_217_19)">
<path d="M3.80378 15.9205V14.8616C3.80378 14.4555 3.55663 14.1908 3.13299 14.1908C2.92121 14.1908 2.69174 14.2614 2.53287 14.4909C2.40937 14.2967 2.23289 14.1908 1.96813 14.1908C1.79156 14.1908 1.61516 14.2437 1.47389 14.4379V14.2261H1.10324V15.9205H1.47389V14.985C1.47389 14.6851 1.63277 14.5438 1.87992 14.5438C2.12692 14.5438 2.25058 14.7027 2.25058 14.985V15.9205H2.62123V14.985C2.62123 14.6851 2.79763 14.5438 3.0271 14.5438C3.27426 14.5438 3.39775 14.7027 3.39775 14.985V15.9205H3.80378ZM9.29291 14.2261H8.69287V13.7143H8.32222V14.2261H7.98686V14.5614H8.32214V15.3381C8.32214 15.7264 8.48101 15.9558 8.90465 15.9558C9.06352 15.9558 9.23992 15.9029 9.36358 15.8323L9.25761 15.5146C9.15172 15.5852 9.02823 15.6029 8.93994 15.6029C8.76346 15.6029 8.69287 15.497 8.69287 15.3204V14.5614H9.29291V14.2261ZM12.4347 14.1908C12.2229 14.1908 12.0817 14.2967 11.9935 14.4379V14.2261H11.6228V15.9205H11.9935V14.9674C11.9935 14.6851 12.117 14.5262 12.3464 14.5262C12.417 14.5262 12.5053 14.5439 12.5759 14.5615L12.6818 14.2085C12.6112 14.1908 12.5053 14.1908 12.4347 14.1908V14.1908ZM7.6868 14.3673C7.51024 14.2437 7.26316 14.1908 6.9984 14.1908C6.57484 14.1908 6.29247 14.4026 6.29247 14.738C6.29247 15.0204 6.50425 15.1792 6.8749 15.2322L7.05138 15.2499C7.24555 15.2851 7.35144 15.3381 7.35144 15.4264C7.35144 15.5499 7.21026 15.6382 6.9631 15.6382C6.71603 15.6382 6.52185 15.5499 6.39828 15.4617L6.22179 15.744C6.41596 15.8852 6.68073 15.9558 6.94541 15.9558C7.43964 15.9558 7.7221 15.7264 7.7221 15.4087C7.7221 15.1086 7.49263 14.9498 7.13958 14.8968L6.9631 14.8792C6.80423 14.8615 6.68073 14.8263 6.68073 14.7204C6.68073 14.5968 6.80423 14.5262 6.9984 14.5262C7.21026 14.5262 7.42203 14.6144 7.52792 14.6674L7.6868 14.3673ZM17.5356 14.1908C17.3238 14.1908 17.1826 14.2967 17.0943 14.4379V14.2261H16.7237V15.9205H17.0943V14.9674C17.0943 14.6851 17.2179 14.5262 17.4473 14.5262C17.518 14.5262 17.6062 14.5439 17.6768 14.5615L17.7827 14.2085C17.7121 14.1908 17.6062 14.1908 17.5356 14.1908ZM12.8054 15.0733C12.8054 15.5852 13.1583 15.9558 13.7055 15.9558C13.9526 15.9558 14.1291 15.9029 14.3056 15.7617L14.1291 15.4617C13.9879 15.5676 13.8467 15.6205 13.6878 15.6205C13.3878 15.6205 13.176 15.4087 13.176 15.0733C13.176 14.7557 13.3878 14.5438 13.6878 14.5262C13.8467 14.5262 13.9879 14.5791 14.1291 14.6851L14.3056 14.385C14.1291 14.2437 13.9526 14.1908 13.7055 14.1908C13.1583 14.1908 12.8054 14.5615 12.8054 15.0733ZM16.2295 15.0733V14.2261H15.8589V14.4379C15.7353 14.2791 15.5588 14.1908 15.3293 14.1908C14.8528 14.1908 14.4821 14.5615 14.4821 15.0733C14.4821 15.5852 14.8528 15.9558 15.3293 15.9558C15.5764 15.9558 15.753 15.8676 15.8589 15.7087V15.9205H16.2295V15.0733ZM14.8704 15.0733C14.8704 14.7733 15.0646 14.5262 15.3822 14.5262C15.6823 14.5262 15.8942 14.7557 15.8942 15.0733C15.8942 15.3734 15.6823 15.6205 15.3822 15.6205C15.0646 15.6028 14.8704 15.3734 14.8704 15.0733ZM10.4402 14.1908C9.94601 14.1908 9.59297 14.5438 9.59297 15.0733C9.59297 15.6029 9.94594 15.9558 10.4579 15.9558C10.7049 15.9558 10.9521 15.8852 11.1463 15.7264L10.9697 15.4617C10.8285 15.5676 10.652 15.6382 10.4755 15.6382C10.2461 15.6382 10.0166 15.5323 9.96362 15.2321H11.2168V15.091C11.2345 14.5438 10.9169 14.1908 10.4402 14.1908ZM10.4402 14.5085C10.6696 14.5085 10.8286 14.6498 10.8638 14.9145H9.98131C10.0166 14.6851 10.1755 14.5085 10.4402 14.5085ZM19.636 15.0733V13.5554H19.2653V14.4379C19.1418 14.2791 18.9653 14.1908 18.7358 14.1908C18.2593 14.1908 17.8886 14.5615 17.8886 15.0733C17.8886 15.5852 18.2593 15.9558 18.7358 15.9558C18.983 15.9558 19.1594 15.8676 19.2653 15.7087V15.9205H19.636V15.0733ZM18.277 15.0733C18.277 14.7733 18.471 14.5262 18.7888 14.5262C19.0889 14.5262 19.3006 14.7557 19.3006 15.0733C19.3006 15.3734 19.0889 15.6205 18.7888 15.6205C18.471 15.6028 18.277 15.3734 18.277 15.0733ZM5.88644 15.0733V14.2261H5.51578V14.4379C5.39221 14.2791 5.21572 14.1908 4.98626 14.1908C4.50971 14.1908 4.13906 14.5615 4.13906 15.0733C4.13906 15.5852 4.50971 15.9558 4.98626 15.9558C5.23341 15.9558 5.40989 15.8676 5.51578 15.7087V15.9205H5.88644V15.0733ZM4.50971 15.0733C4.50971 14.7733 4.70388 14.5262 5.02155 14.5262C5.32161 14.5262 5.53347 14.7557 5.53347 15.0733C5.53347 15.3734 5.32161 15.6205 5.02155 15.6205C4.70388 15.6028 4.50971 15.3734 4.50971 15.0733Z" fill="black"/>
<path d="M7.56323 1.35913H13.123V11.3492H7.56323V1.35913Z" fill="#FF5F00"/>
<path d="M7.91625 6.35409C7.91625 4.32434 8.86934 2.52398 10.3343 1.35904C9.25768 0.511839 7.89864 0 6.41603 0C2.90351 0 0.0618591 2.84165 0.0618591 6.35409C0.0618591 9.86645 2.90351 12.7082 6.41595 12.7082C7.89856 12.7082 9.2576 12.1963 10.3343 11.3491C8.86934 10.2018 7.91625 8.38384 7.91625 6.35409Z" fill="#EB001B"/>
<path d="M20.6244 6.35409C20.6244 9.86645 17.7827 12.7082 14.2703 12.7082C12.7877 12.7082 11.4286 12.1963 10.352 11.3491C11.8346 10.1842 12.77 8.38384 12.77 6.35409C12.77 4.32434 11.8169 2.52398 10.352 1.35904C11.4285 0.511839 12.7877 0 14.2703 0C17.7827 0 20.6244 2.85934 20.6244 6.35409Z" fill="#F79E1B"/>
</g>
<defs>
<clipPath id="clip0_217_19">
<rect width="20.5867" height="16" fill="white" transform="translate(0.0599976)"/>
</clipPath>
</defs>
</svg>
