<svg width="57" height="56" viewBox="0 0 57 56" fill="none" xmlns="http://www.w3.org/2000/svg">
<g clip-path="url(#clip0_170_1203)">
<g clip-path="url(#clip1_170_1203)">
<path fill-rule="evenodd" clip-rule="evenodd" d="M45.2917 26.211C45.8048 26.112 49.3604 26.211 50.1795 26.211C50.9725 26.1527 51.7696 26.1829 52.5559 26.3011C56.0215 27.2012 55.9945 32.6021 52.2409 33.2772C51.6828 33.3762 48.1902 33.2772 47.344 33.2772C46.5507 33.3303 45.7539 33.2971 44.9676 33.1782C44.4939 33.0387 44.0539 32.8033 43.675 32.4865C43.2961 32.1697 42.9865 31.7784 42.7653 31.3369C42.5441 30.8953 42.4161 30.413 42.3892 29.9199C42.3624 29.4267 42.4373 28.9334 42.6093 28.4704C42.8074 27.8806 43.1643 27.3569 43.6407 26.9567C44.1171 26.5565 44.6946 26.2954 45.3097 26.202L45.2917 26.211ZM57.2727 30.4057C57.3944 29.4555 57.2779 28.4899 56.9338 27.5959C56.5897 26.7018 56.0287 25.9073 55.3014 25.2839C54.6117 24.6991 53.7898 24.2913 52.907 24.0957C51.7668 23.9511 50.6158 23.9119 49.4684 23.9787H45.8678C44.8666 23.9554 43.8787 24.211 43.0143 24.7168C42.2231 25.1966 41.5563 25.8565 41.0683 26.6427C40.5802 27.4289 40.2847 28.3193 40.2057 29.2413C40.1268 30.1633 40.2666 31.0909 40.6139 31.9486C40.9612 32.8064 41.506 33.57 42.2042 34.1774C44.0045 35.7166 45.7508 35.4916 48.0282 35.4916H51.6288C53.0372 35.5109 54.4011 34.9978 55.4475 34.0548C56.494 33.1119 57.1458 31.8086 57.2727 30.4057ZM23.373 25.5359C23.6015 26.0682 23.9046 26.5653 24.2732 27.0122L27.1087 31.1709C27.6307 31.99 28.3509 33.1692 28.963 33.9523C29.298 34.4575 29.7568 34.8683 30.2958 35.1456C30.8347 35.423 31.4357 35.5576 32.0415 35.5366C32.6217 35.4867 33.1811 35.2969 33.6719 34.9833C34.1626 34.6698 34.5699 34.2418 34.859 33.7363C35.4711 32.8361 36.0922 31.936 36.7403 30.9638L40.0528 26.058C40.1986 25.8694 40.2837 25.641 40.2971 25.4029C40.3104 25.1649 40.2513 24.9284 40.1275 24.7247C40.0037 24.5209 39.821 24.3595 39.6036 24.2617C39.3862 24.1639 39.1442 24.1342 38.9096 24.1767C38.6436 24.2728 38.4006 24.4232 38.196 24.6185C37.9914 24.8138 37.8298 25.0496 37.7214 25.3109L35.8401 28.1014C35.219 29.0015 34.5889 29.9647 33.9588 30.8738C33.6348 31.3419 33.3467 31.774 33.0587 32.26C32.7706 32.7461 32.3745 33.3402 31.6634 33.1602C31.1534 32.9108 30.7438 32.4948 30.5022 31.981L29.6021 30.5948C28.972 29.6946 28.3689 28.7945 27.7118 27.8223C27.0547 26.8501 26.4876 26.022 25.8304 25.0498C25.7259 24.762 25.5284 24.5173 25.2692 24.3543C25.01 24.1913 24.7039 24.1193 24.3992 24.1497C24.2385 24.168 24.0832 24.2192 23.9431 24.3C23.803 24.3809 23.681 24.4897 23.5848 24.6197C23.4885 24.7498 23.4201 24.8982 23.3836 25.0558C23.3472 25.2134 23.3436 25.3769 23.373 25.5359ZM1.34635 25.5089C1.56518 26.0461 1.86912 26.5446 2.2465 26.9852L6.01813 32.5301C6.91828 33.9343 7.81843 35.6086 10.0058 35.5366C11.9861 35.4646 12.8053 33.8083 13.8134 32.3141L16.6489 28.1554C16.946 27.7053 17.27 27.2552 17.5941 26.7691C18.0205 26.3401 18.2765 25.7706 18.3142 25.1669C18.2924 25.0103 18.2393 24.8598 18.1581 24.7242C18.077 24.5886 17.9694 24.4707 17.8417 24.3774C17.7141 24.2842 17.569 24.2176 17.4151 24.1816C17.2613 24.1456 17.1017 24.1408 16.946 24.1677C16.6761 24.2533 16.4287 24.3979 16.2216 24.5909C16.0145 24.784 15.853 25.0207 15.7488 25.2839C15.0917 26.247 14.5066 27.0932 13.8584 28.1014C13.2103 29.1095 12.6162 29.9017 11.9681 30.8018C11.6351 31.2789 11.356 31.702 11.068 32.188C10.9617 32.4658 10.7744 32.7052 10.5305 32.8753C10.2865 33.0455 9.99713 33.1384 9.69975 33.1422C9.16936 32.9127 8.74505 32.4916 8.51155 31.963C6.95429 29.7396 5.33402 27.3002 3.79476 25.0228C3.68802 24.7384 3.49136 24.4966 3.23466 24.3341C2.97797 24.1717 2.67526 24.0974 2.37252 24.1227C2.21179 24.141 2.05654 24.1921 1.91642 24.273C1.77631 24.3539 1.65434 24.4627 1.55809 24.5927C1.46184 24.7227 1.39337 24.8712 1.35694 25.0288C1.32052 25.1864 1.31691 25.3498 1.34635 25.5089ZM20.6096 24.1767C19.4574 24.4197 19.6464 25.4009 19.6464 26.6251V33.5023C19.5636 34.0187 19.6356 34.548 19.8534 35.0235C19.978 35.206 20.1513 35.3498 20.3536 35.4386C20.5559 35.5274 20.7791 35.5576 20.9977 35.5257C21.2164 35.4938 21.4216 35.4011 21.5901 35.2582C21.7586 35.1153 21.8836 34.9279 21.9508 34.7175C22.0588 34.3574 22.0048 30.2167 22.0048 29.6136V26.166C22.0855 25.6534 22.0167 25.1284 21.8068 24.6538C21.6811 24.464 21.502 24.3157 21.2922 24.2276C21.0823 24.1395 20.8511 24.1155 20.6276 24.1587L20.6096 24.1767ZM20.6726 20C20.5042 20.1107 20.3602 20.2546 20.2495 20.4231L19.3494 21.2692C18.8093 21.8003 19.2593 22.0433 19.9525 22.7005L20.3755 23.1235C20.9246 23.6726 21.1317 23.2675 21.8518 22.5474C22.8599 21.5843 22.8239 21.8003 21.2667 20.243C21.2101 20.141 21.1203 20.0613 21.0123 20.0171C20.9043 19.973 20.7845 19.9669 20.6726 20Z" fill="#0072B8"/>
</g>
</g>
<defs>
<clipPath id="clip0_170_1203">
<rect width="56" height="56" fill="white" transform="translate(0.827515)"/>
</clipPath>
<clipPath id="clip1_170_1203">
<rect width="56" height="15.5456" fill="white" transform="translate(1.32751 20)"/>
</clipPath>
</defs>
</svg>
