<svg width="50" height="16" viewBox="0 0 50 16" fill="none" xmlns="http://www.w3.org/2000/svg">
<g clip-path="url(#clip0_217_24)">
<path d="M26.171 5.09459C26.1428 7.31454 28.1494 8.55329 29.6609 9.28987C31.2139 10.0455 31.7355 10.5302 31.7293 11.206C31.7178 12.2402 30.4906 12.6967 29.3422 12.7144C27.3388 12.7455 26.1739 12.1735 25.2478 11.741L24.526 15.1181C25.4552 15.5463 27.1757 15.9196 28.9598 15.936C33.1477 15.936 35.8876 13.8688 35.9024 10.6636C35.9188 6.5957 30.2758 6.37054 30.3144 4.55232C30.3277 4.001 30.8538 3.41266 32.0065 3.26307C32.5771 3.18751 34.1523 3.12967 35.9381 3.95204L36.639 0.684566C35.6786 0.33488 34.4443 3.62396e-05 32.9075 3.62396e-05C28.9658 3.62396e-05 26.1933 2.09546 26.171 5.09459ZM43.374 0.281482C42.6093 0.281482 41.9649 0.727553 41.6773 1.41208L35.695 15.696H39.8799L40.7127 13.3945H45.8265L46.3096 15.696H49.998L46.7793 0.281482H43.374ZM43.9595 4.44553L45.1672 10.2339H41.8596L43.9595 4.44553ZM21.097 0.281674L17.7983 15.6958H21.7862L25.0833 0.281289H21.097M15.1977 0.281289L11.0469 10.7732L9.36788 1.85237C9.17087 0.856518 8.39284 0.281482 7.52884 0.281482H0.743687L0.648651 0.729095C2.04161 1.03136 3.62427 1.51888 4.58311 2.04052C5.1699 2.35917 5.33723 2.63772 5.53 3.39493L8.71014 15.696H12.9243L19.3852 0.281482L15.1977 0.281289Z" fill="url(#paint0_linear_217_24)"/>
</g>
<defs>
<linearGradient id="paint0_linear_217_24" x1="2269.44" y1="47.9037" x2="2315.57" y2="-1588.75" gradientUnits="userSpaceOnUse">
<stop stop-color="#222357"/>
<stop offset="1" stop-color="#254AA5"/>
</linearGradient>
<clipPath id="clip0_217_24">
<rect width="49.3533" height="16" fill="white" transform="translate(0.646667)"/>
</clipPath>
</defs>
</svg>
