<svg width="57" height="56" viewBox="0 0 57 56" fill="none" xmlns="http://www.w3.org/2000/svg">
<g clip-path="url(#clip0_170_1208)">
<path d="M28.4967 3.19259C21.6488 3.19259 15.4471 5.97025 10.9571 10.4637C6.46528 14.947 3.68933 21.152 3.68933 28.0034C3.68933 34.8497 6.46528 41.0505 10.9571 45.5354C15.4471 50.0229 21.6488 52.8057 28.4967 52.8057C35.3464 52.8057 41.5515 50.0229 46.0347 45.5354C50.5248 41.0505 53.2948 34.8497 53.2948 28.0034C53.2948 21.152 50.5248 14.947 46.0347 10.4637C41.5515 5.97025 35.3464 3.19259 28.4967 3.19259ZM28.4967 0.186668C43.8555 0.186668 56.3084 12.6412 56.3084 28.0034C56.3084 43.3605 43.8555 55.8133 28.4967 55.8133C13.1397 55.8133 0.681702 43.3605 0.681702 28.0034C0.681702 12.6412 13.1397 0.186668 28.4967 0.186668Z" fill="#007DB8"/>
<path d="M15.3423 27.7768C15.3423 26.1558 14.2668 25.2351 12.7442 25.2351H11.8123V30.3202H12.7177C14.1334 30.3202 15.3423 29.5508 15.3423 27.7768ZM31.9185 29.6063L25.0534 35.012L18.7791 30.0723C17.8737 32.2472 15.686 33.7579 13.1665 33.7579H7.79669V21.7957H13.1665C15.9818 21.7957 18.0105 23.5859 18.7774 25.4933L25.0534 20.5586L27.3779 22.3882L21.626 26.909L22.7314 27.7742L28.4816 23.2559L30.8096 25.0803L25.0585 29.6063L26.1622 30.4732L31.9185 25.9464V21.7957H36.0913V30.2663H40.254V33.7724H31.9185V29.6063ZM45.54 30.268H49.7009V33.7724H41.3628V21.7957H45.54V30.268Z" fill="#007DB8"/>
</g>
<defs>
<clipPath id="clip0_170_1208">
<rect width="56" height="56" fill="white" transform="translate(0.495056)"/>
</clipPath>
</defs>
</svg>
