<svg width="57" height="56" viewBox="0 0 57 56" fill="none" xmlns="http://www.w3.org/2000/svg">
<g clip-path="url(#clip0_170_1216)">
<path d="M1.1759 19H55.1541V36.9928H1.1759V19Z" fill="#E22319"/>
<path d="M24.6735 25.0655C23.8579 25.0655 22.9915 25.4223 22.4308 26.1868V25.2185H20.5449V32.1505H22.4308V28.1747C22.4308 27.4612 22.9915 26.6966 24.0109 26.6966C24.7755 26.6966 25.5911 27.2573 25.5911 28.1747V32.0995H27.477V27.818C27.5279 26.2378 26.3555 25.0655 24.6735 25.0655ZM41.0352 25.1675L39.3022 29.9077L37.5691 25.1675H35.4284L38.2828 32.0995H40.3725L43.1759 25.1675H41.0352ZM18.506 29.9587C17.6905 30.5704 17.2317 30.6723 16.5181 30.6723C15.8555 30.6723 15.3458 30.4685 14.989 30.1117L19.8312 28.0728C19.7293 27.3083 19.4234 26.6456 19.0157 26.1359C18.3531 25.3714 17.4356 25.0146 16.2633 25.0146C14.1735 25.0146 12.5934 26.5437 12.5934 28.5825C12.5934 30.6723 14.1735 32.1506 16.4671 32.1506C17.7414 32.1506 19.0666 31.5389 19.6783 30.8252L18.506 29.9587ZM14.8361 27.2573C15.142 26.7985 15.6516 26.5437 16.3142 26.5437C16.9768 26.5437 17.5375 26.9515 17.7924 27.5122L14.4793 28.8884C14.3774 28.2257 14.5813 27.6651 14.8361 27.2573ZM12.4405 30.3665H8.10794V23.1286H6.17102V32.0995H12.4405V30.3665ZM46.5911 32.2014C44.5013 32.2014 42.8702 30.6723 42.8702 28.6334C42.8702 26.6455 44.5012 25.0655 46.5911 25.0655C48.6808 25.0655 50.3119 26.5946 50.3119 28.6334C50.3628 30.6723 48.7318 32.2014 46.5911 32.2014ZM46.5911 26.6966C45.5206 26.6966 44.756 27.5122 44.756 28.6335C44.756 29.7039 45.5716 30.5704 46.5911 30.5704C47.6614 30.5704 48.4261 29.7549 48.4261 28.6335C48.4769 27.5631 47.6613 26.6966 46.5911 26.6966ZM31.9623 32.2014C29.8726 32.2014 28.2415 30.6723 28.2415 28.6334C28.2415 26.6455 29.8726 25.0655 31.9623 25.0655C34.0521 25.0655 35.6832 26.5946 35.6832 28.6334C35.6832 30.6723 34.0522 32.2014 31.9623 32.2014ZM31.9623 26.6966C30.892 26.6966 30.1273 27.5122 30.1273 28.6335C30.1273 29.7039 30.9429 30.5704 31.9623 30.5704C33.0328 30.5704 33.7974 29.7549 33.7974 28.6335C33.8483 27.5631 33.0328 26.6966 31.9623 26.6966ZM50.6177 31.2839H50.3119V31.131H51.1275V31.2839H50.8216V32.0995H50.6177V31.2839ZM51.3314 31.1311H51.5353L51.8411 31.5899L52.1469 31.1311H52.3508V32.1506H52.1469V31.4369L51.8411 31.8957L51.5353 31.4369V32.1506H51.3314V31.1311Z" fill="white"/>
</g>
<defs>
<clipPath id="clip0_170_1216">
<rect width="54" height="17.9928" fill="white" transform="translate(1.16504 19)"/>
</clipPath>
</defs>
</svg>
