<svg width="57" height="56" viewBox="0 0 57 56" fill="none" xmlns="http://www.w3.org/2000/svg">
<g clip-path="url(#clip0_170_1195)">
<path d="M53.6655 27.4878V28.5688H54.486V29.6415C54.4882 29.7235 54.4844 29.8113 54.472 29.8868L54.4651 29.9233C54.4638 29.9318 54.4621 29.9402 54.4602 29.9486L54.4536 29.9749C54.4523 29.9794 54.4509 29.9839 54.4495 29.9885L54.44 30.0163C54.3661 30.2138 54.144 30.4641 53.6448 30.4641C53.1132 30.4641 52.8997 30.1768 52.8414 29.975L52.8345 29.9486L52.8293 29.9233C52.8146 29.8407 52.8083 29.7373 52.8083 29.6415V26.2538C52.8083 26.1472 52.8152 26.0318 52.836 25.9378L52.8501 25.8806L52.8534 25.8685L52.861 25.8433L52.8656 25.8303L52.8758 25.8033C52.9517 25.6162 53.1523 25.3669 53.6404 25.3669C54.0173 25.3669 54.2201 25.5091 54.3286 25.656L54.3479 25.6835C54.3539 25.6927 54.3596 25.7019 54.3649 25.7111L54.3801 25.7382L54.3935 25.765L54.405 25.791L54.4149 25.816L54.4233 25.8401L54.4305 25.8628L54.4361 25.8841L54.4407 25.9035C54.4429 25.9132 54.4448 25.9235 54.4465 25.9343L54.4512 25.9674L54.4534 25.9846L54.4582 26.0367L54.4615 26.0865L54.4644 26.1545L54.4651 26.1895V26.6008H56.4812L56.4817 26.3447L56.483 26.2532L56.4825 26.1822L56.4808 26.0994L56.4791 26.055L56.4755 25.9856L56.4704 25.9145L56.466 25.867C56.3295 24.6157 55.3135 24.1342 54.0774 24.0504L53.9947 24.0454L53.9114 24.0416C53.8694 24.04 53.8274 24.0388 53.7854 24.038L53.7007 24.037C53.6865 24.0368 53.6723 24.0368 53.6581 24.0368L53.5731 24.0373L53.5309 24.038L53.4466 24.0401L53.363 24.0434L53.2801 24.0479L53.1978 24.0535C53.1705 24.0556 53.1433 24.0578 53.1162 24.0604L53.0354 24.0685C53.022 24.0699 53.0087 24.0713 52.9954 24.0729L52.9157 24.0828C52.731 24.1074 52.5534 24.1426 52.3849 24.1895L52.3133 24.2103C51.5322 24.4476 50.9645 24.9521 50.8479 25.867L50.8359 25.9686L50.8277 26.0473L50.82 26.1297L50.8136 26.2117C50.81 26.2654 50.8076 26.3158 50.8076 26.3576L50.8078 29.5138L50.8083 29.553L50.8101 29.6126L50.812 29.6543L50.8149 29.6988L50.8185 29.7473L50.8231 29.8007L50.8319 29.8924L50.8395 29.9626C50.9526 31.1256 51.9046 31.6428 53.0694 31.7649L53.151 31.7728C53.2876 31.7849 53.4268 31.7916 53.5677 31.7936L53.6525 31.7941L53.7378 31.7936C53.8776 31.7918 54.0172 31.7849 54.1564 31.7728L54.2384 31.7649C55.4069 31.6428 56.3526 31.1256 56.4678 29.9626L56.4771 29.8602L56.484 29.7734L56.4902 29.6762L56.4939 29.5924L56.4972 29.4739V27.4877H53.6654L53.6655 27.4878ZM39.7637 24.2362H37.7391V29.7195C37.7423 29.8151 37.7391 29.9224 37.7213 30.0011L37.7154 30.025L37.7079 30.0503C37.7051 30.0593 37.7021 30.0682 37.699 30.0771L37.6885 30.1049C37.612 30.2935 37.4174 30.5394 36.9519 30.5394C36.5154 30.5394 36.3162 30.3175 36.2326 30.1336L36.2204 30.1049C36.2186 30.1003 36.2167 30.0956 36.215 30.0909L36.2055 30.0636L36.1976 30.0375C36.1964 30.0333 36.1953 30.0292 36.1942 30.025L36.1886 30.0011C36.1684 29.9224 36.1658 29.8151 36.1684 29.7196V24.2359H34.1443V29.5494L34.1439 29.592L34.1446 29.6667L34.1475 29.7766L34.153 29.9103L34.1569 29.9774L34.1595 30.0132L34.162 30.0394C34.2612 31.0224 34.8841 31.5341 35.7638 31.7482L35.8387 31.7656C36.0082 31.8024 36.18 31.8292 36.3531 31.8457L36.4361 31.8532L36.52 31.8594L36.6048 31.8645C36.6474 31.8668 36.6903 31.8686 36.7335 31.87L36.8204 31.8722L36.9079 31.8732C36.9225 31.8734 36.9373 31.8734 36.9519 31.8734L37.0401 31.8729L37.0838 31.8722L37.1708 31.87C37.2141 31.8687 37.2571 31.8668 37.2999 31.8646L37.3846 31.8595L37.4687 31.8532L37.5519 31.8457C38.7359 31.7292 39.6243 31.2301 39.7466 30.0394L39.7482 30.0275L39.7515 29.9964L39.7564 29.9342L39.7608 29.8588L39.7632 29.8045L39.7657 29.721L39.7664 29.6667L39.7661 29.6158L39.7648 29.5698L39.7637 29.5494V24.2362ZM21.1606 24.2362L20.1507 30.0301L19.1413 24.2362H15.8753L15.7021 31.6482H17.703L17.7571 24.7866L19.1338 31.6482H21.1638L22.5417 24.7866L22.5961 31.6482H24.602L24.4229 24.2362H21.1606ZM9.06857 24.2362L7.58568 31.6482H9.74811L10.8657 24.7866L11.9564 31.6482H14.1038L12.6271 24.2362H9.06857ZM46.8397 30.2037L44.9544 24.2362H41.9836V31.5709H43.9488L43.8347 25.4125L45.8594 31.5709H48.7086V24.2362H46.7305L46.8397 30.2037ZM28.6613 26.1652C28.6257 26.0187 28.636 25.8633 28.6544 25.782C28.6596 25.7604 28.6658 25.7386 28.673 25.717L28.6848 25.6845C28.7646 25.4789 28.9516 25.2859 29.38 25.2859C29.8423 25.2859 30.1134 25.5528 30.1134 25.9532V26.4065H32.0871V25.8899C32.0871 24.7241 31.263 24.2755 30.3824 24.1184L30.3099 24.1061L30.2373 24.0951L30.1645 24.0853L30.0919 24.0767L30.0193 24.0691L29.947 24.0626C29.9229 24.0606 29.8988 24.0587 29.8749 24.0571L29.8034 24.0526L29.7323 24.0489L29.6617 24.0461L29.5918 24.0441L29.5229 24.0426L29.421 24.0419L29.3762 24.0421L29.2868 24.0433C29.2719 24.0435 29.2573 24.0439 29.2424 24.0444L29.1542 24.0474C29.125 24.0485 29.0959 24.0499 29.0669 24.0514L28.9805 24.057C27.7763 24.1423 26.8368 24.6002 26.6488 25.674C26.5932 26.0011 26.5795 26.2913 26.6679 26.6618C26.8073 27.2705 27.355 27.7037 27.9837 28.0669L28.0811 28.1223L28.1301 28.1497L28.2288 28.2034L28.3281 28.2565L28.4279 28.3087L28.5775 28.3856L28.9706 28.5851L29.0662 28.6341L29.16 28.6829L29.252 28.7317L29.3418 28.7806C29.7703 29.0167 30.1137 29.2561 30.2371 29.5424C30.3055 29.7125 30.2906 29.9268 30.2576 30.0636L30.2519 30.0857C30.2437 30.119 30.2332 30.1517 30.2205 30.1838L30.2067 30.2159C30.1157 30.4126 29.917 30.5803 29.4803 30.5803C28.9822 30.5803 28.6823 30.3151 28.6823 29.9154L28.6816 29.2042H26.5573V29.7696C26.5573 31.0967 27.4667 31.6732 28.6057 31.8444L28.6905 31.8563C28.7473 31.8638 28.8046 31.8703 28.8622 31.8758L28.9492 31.8835C29.051 31.8916 29.154 31.8971 29.2577 31.8999L29.3468 31.9018L29.3916 31.9022L29.4363 31.9024C29.4661 31.9024 29.4958 31.9022 29.5253 31.9018L29.6137 31.8999L29.6575 31.8986L29.7449 31.895C29.7737 31.8937 29.8026 31.8919 29.8313 31.8902L29.9169 31.8842C29.9732 31.8797 30.0294 31.8743 30.0854 31.8679L30.1683 31.858L30.2503 31.8467C30.2774 31.8426 30.3043 31.8386 30.3311 31.834L30.4109 31.8201C31.3751 31.6412 32.0925 31.1563 32.2364 30.2238C32.2563 30.0847 32.2685 29.9563 32.2751 29.8388L32.2786 29.7622C32.2792 29.7497 32.2795 29.7373 32.2798 29.7251L32.2811 29.6535V29.5851L32.28 29.5201L32.2776 29.4584L32.2743 29.4003C32.2738 29.391 32.2731 29.3817 32.2725 29.3725L32.2681 29.3194L32.2631 29.2698L32.2576 29.2237L32.2489 29.1612L32.2398 29.1067L32.2279 29.0467L32.2224 29.0221C32.0834 28.3766 31.4731 27.9207 30.7951 27.5454L30.6977 27.4924L30.5997 27.4403L30.5014 27.3892L30.3537 27.3142L30.158 27.2169L29.8238 27.0524L29.6864 26.9835L29.6416 26.9607L29.5537 26.9153L29.4681 26.8701C29.0475 26.6443 28.7295 26.4225 28.6613 26.1652ZM2.62567 26.1468C2.58936 26.0068 2.59505 25.8594 2.61364 25.7738L2.6213 25.7418L2.63005 25.71C2.69677 25.4874 2.87909 25.258 3.35028 25.258C3.81851 25.258 4.09424 25.5274 4.09424 25.9312V26.39H6.09119V25.8694C6.09119 24.7569 5.34362 24.2896 4.50833 24.1068L4.43549 24.0916C4.37463 24.0796 4.31348 24.0689 4.25207 24.0595L4.17846 24.049L4.10485 24.0396L4.03124 24.0314L3.95796 24.0243C3.93358 24.0221 3.90919 24.02 3.88479 24.0181L3.81216 24.0131L3.73998 24.0088L3.66823 24.0055L3.59713 24.003L3.52703 24.0013L3.42312 24H3.3891C3.35914 24 3.32928 24.0002 3.29964 24.0006L3.21082 24.0023C3.15198 24.0039 3.09358 24.0064 3.03583 24.0094L2.94942 24.0149C2.9352 24.0159 2.92087 24.0169 2.90666 24.0181L2.82167 24.0254C2.79364 24.028 2.76564 24.0309 2.73767 24.034L2.65455 24.0439C2.58586 24.0528 2.51816 24.0629 2.45155 24.0745L2.37225 24.0891L2.29405 24.1051L2.21716 24.1225C2.19168 24.1286 2.16641 24.1348 2.14148 24.1414L2.06699 24.1616C1.29208 24.3822 0.733504 24.8448 0.59263 25.6474C0.534443 25.9796 0.524381 26.2719 0.608489 26.6465C0.756582 27.2936 1.36033 27.7444 2.03582 28.1231L2.13513 28.178L2.18512 28.2052L2.28541 28.2586L2.43657 28.3375L2.63781 28.4402L2.93444 28.5908L3.07859 28.6651L3.2187 28.739L3.30948 28.7885C3.32436 28.7967 3.33923 28.8049 3.35389 28.8132L3.44095 28.8627C3.81173 29.0778 4.10222 29.2992 4.21422 29.559C4.28772 29.7278 4.27055 29.9422 4.23588 30.0833L4.22997 30.1062C4.22132 30.1391 4.21059 30.1715 4.19782 30.2032L4.18393 30.2351C4.09074 30.4352 3.89048 30.6069 3.44806 30.6069C2.948 30.6069 2.64886 30.3372 2.64886 29.9321L2.64602 29.2188H0.497803V29.7855C0.497803 31.3764 1.79334 31.8993 3.22811 31.9386L3.3179 31.9405L3.40803 31.9411L3.49717 31.9406C3.54157 31.9399 3.58576 31.9389 3.62951 31.9375L3.71701 31.9339C3.76032 31.9318 3.80352 31.9292 3.8464 31.9262L3.93171 31.9195L4.01593 31.9116C4.04393 31.9088 4.07171 31.9057 4.09949 31.9025L4.18185 31.8918C4.20919 31.8881 4.23643 31.8842 4.26333 31.88L4.34372 31.8668C5.3422 31.6937 6.08627 31.2034 6.23611 30.2444C6.25526 30.1183 6.26887 29.9915 6.27691 29.8644L6.28084 29.7885L6.28325 29.7158C6.28383 29.6927 6.2842 29.6695 6.28434 29.6463L6.28402 29.5799L6.28259 29.5169L6.28019 29.4571L6.27691 29.4005L6.27286 29.3472L6.26827 29.2973L6.26039 29.2287L6.25197 29.1677L6.24059 29.0983L6.22769 29.031C6.08911 28.3932 5.49707 27.9393 4.83087 27.5662L4.73287 27.5122C4.7165 27.5033 4.70009 27.4944 4.68366 27.4856L4.58445 27.4331L4.48503 27.3816L4.3855 27.3309L4.28597 27.2812L3.84716 27.0655L3.70673 26.9958L3.61562 26.9499L3.5267 26.9041L3.44029 26.8585L3.39818 26.8357L3.31615 26.7904C2.95347 26.5858 2.68725 26.3812 2.62567 26.1468Z" fill="#1428A0"/>
</g>
<defs>
<clipPath id="clip0_170_1195">
<rect width="56" height="8" fill="white" transform="translate(0.497498 24)"/>
</clipPath>
</defs>
</svg>
