<svg width="182" height="48" viewBox="0 0 182 48" fill="none" xmlns="http://www.w3.org/2000/svg">
<g clip-path="url(#clip0_993_26496)">
<mask id="mask0_993_26496" style="mask-type:luminance" maskUnits="userSpaceOnUse" x="0" y="0" width="182" height="38">
<path d="M42.7156 31.521C42.7156 31.521 41.1859 31.2429 41.464 29.6205C41.7421 28.0212 42.3216 25.4254 42.3216 25.4254C42.3216 25.4254 42.6692 24.2665 44.5466 24.2665H50.8508L49.437 31.5442L42.6924 31.4978L42.7156 31.521ZM71.4322 22.5746L76.902 15.5519H87.7721L90.252 22.7137L84.4809 30.1999H74.028L71.409 22.5978L71.4322 22.5746ZM133.223 28.2762C133.223 28.2762 137 8.20473 137.534 6.28102C138.02 4.45002 139.55 4.61226 139.55 4.61226H148.195L147.175 9.85031H151.023L152.019 4.82086H154.986L150.165 30.2231H135.03C132.69 30.2231 133.199 28.2994 133.199 28.2994M31.2197 0L18.4259 23.2699L14.5553 0H6.67504L5.7943 4.4732H8.99276L4.05601 30.1072H0.880734L0 34.6036H7.23129L12.3535 8.11202L15.8069 37.0372L30.1304 8.76098L25.1009 34.6267H37.1994L37.6861 31.8223C37.6398 35.0671 41.3713 34.7658 41.3713 34.7658H62.5553L64.1545 31.7991L68.141 26.5379L70.3196 32.2859L70.9918 34.6499H86.1033L88.2356 31.1502L91.7354 26.5379C91.7354 26.5379 93.5664 31.3124 93.7286 31.776C93.8909 32.2395 94.5862 34.6499 94.5862 34.6499H128.518C128.518 34.6499 128.796 30.8025 129.028 31.9614C129.514 34.2327 131.994 34.6499 131.994 34.6499H149.91C149.91 34.6499 150.211 30.1767 150.374 32.2627C150.582 34.9049 154.221 34.7658 154.221 34.7658C154.221 34.7658 158.81 34.7658 163.654 34.7658C168.498 34.7658 169.17 29.296 169.17 29.296L173.899 4.79768H180.643L181.524 0.324481H170.746C170.746 0.324481 165.879 25.6572 165.462 27.9285C165.022 30.1999 163.283 30.3158 163.283 30.3158C163.283 30.3158 158.81 30.3158 156.33 30.339C153.827 30.3621 154.546 28.3457 154.546 28.3457L159.923 0.139063H138.785C134.544 0.0927088 133.732 4.65862 133.732 4.65862C133.732 4.65862 129.213 27.7663 129.028 28.8093C128.819 29.8522 128.865 30.2231 128.865 30.2231H112.224L114.287 19.3066H124.438L125.342 14.7175H115.191L117.114 4.63544H127.475L126.478 9.80396H130.302L132.156 0.16224H111.297L110.416 4.63544H113.058L108.145 30.2231H97.6456L94.7716 22.5978L99.8242 15.7373H103.278L104.135 11.2409H99.0362L93.3578 18.6577L90.8083 11.1946H75.4418L69.7634 18.6577L67.2139 11.0555H62.2076L61.3269 15.9691H64.2009L66.6808 22.7137L60.817 30.3621H53.0526C53.0526 30.3621 54.9068 20.9986 55.6485 16.6876C56.5292 11.4959 52.0097 11.6118 52.0097 11.6118C52.0097 11.6118 48.4867 11.5654 45.7286 11.6118C42.9705 11.635 41.9739 13.7904 41.5799 14.6248C41.2091 15.4592 40.3515 19.9556 40.3515 19.9556H44.1989C44.1989 19.9556 44.6393 17.916 44.8711 16.9425C45.0797 16.0386 46.0068 16.1777 46.0068 16.1777H51.2216C52.1024 16.1545 51.7779 17.128 51.7779 17.128L50.9899 21.184H44.083C39.4244 21.184 38.9609 24.9155 38.9609 24.9155L37.7789 30.1535H30.084L35.0208 4.51956H38.2656L39.1695 0.0463544H31.2429L31.2197 0Z" fill="white"/>
</mask>
<g mask="url(#mask0_993_26496)">
<path d="M181.501 0H0V37.0372H181.501V0Z" fill="url(#paint0_linear_993_26496)"/>
</g>
<path d="M1.04297 45.6131V38.0342H4.98309C5.91018 38.0342 6.53597 38.1732 6.88363 38.4514C7.20811 38.7295 7.39352 39.2626 7.39352 40.0274C7.39352 40.7923 6.99951 41.5108 6.21149 41.673C7.13857 41.8352 7.57894 42.4378 7.57894 43.504C7.57894 44.5702 7.39352 44.8251 7.04587 45.1264C6.69821 45.4277 6.07242 45.5899 5.19169 45.5899H1.04297V45.6131ZM2.57266 41.2095H4.42684C5.02945 41.2095 5.42346 41.1399 5.5857 41.024C5.74794 40.9082 5.84065 40.6068 5.84065 40.1433C5.84065 39.6798 5.46982 39.2394 4.75132 39.2394H2.57266V41.2095ZM2.57266 44.4079H4.7745C5.2844 44.4079 5.63206 44.3152 5.7943 44.1993C5.95654 44.0603 6.04925 43.7821 6.04925 43.3418C6.04925 42.9014 5.95654 42.6001 5.7943 42.4842C5.63206 42.3683 5.19169 42.2988 4.51955 42.2988H2.57266V44.4311V44.4079Z" fill="#1E1E1E"/>
<path d="M12.2607 43.9208H13.605V44.1294C13.605 45.1724 12.7706 45.6823 11.1251 45.6823C9.47948 45.6823 9.27089 45.4968 8.92323 45.1492C8.57557 44.7783 8.41333 44.0367 8.41333 42.8778C8.41333 41.719 8.59875 41.1395 8.94641 40.7919C9.31724 40.4442 10.0126 40.2588 11.0555 40.2588C12.0985 40.2588 12.7243 40.421 13.0719 40.7687C13.4196 41.1163 13.5818 41.7885 13.5818 42.8083V43.2023H9.78079C9.78079 43.3182 9.78079 43.3877 9.78079 43.4341C9.78079 43.9671 9.87349 44.3148 10.0357 44.477C10.198 44.6393 10.5456 44.732 11.0555 44.732C11.5654 44.732 11.8667 44.6856 12.029 44.5698C12.168 44.477 12.2607 44.2453 12.2607 43.9208ZM12.2607 42.4143V42.2057C12.2607 41.7885 12.168 41.5104 12.029 41.3945C11.8667 41.2786 11.5423 41.2091 11.0092 41.2091C10.4761 41.2091 10.1748 41.2786 10.0357 41.4408C9.89667 41.6031 9.80396 41.9276 9.80396 42.4374H12.2607V42.4143Z" fill="#1E1E1E"/>
<path d="M19.1444 41.858H17.777C17.777 41.2322 17.9392 40.7919 18.2405 40.5833C18.565 40.3747 19.1676 40.2588 20.1179 40.2588C21.0681 40.2588 21.8098 40.3979 22.1806 40.6528C22.5283 40.9078 22.7137 41.4176 22.7137 42.1593V45.6359H21.3694L21.439 44.9174H21.3926C21.1376 45.4505 20.535 45.7054 19.608 45.7054C18.2405 45.7054 17.5684 45.1492 17.5684 44.0599C17.5684 42.9705 18.2637 42.4143 19.6543 42.4143C21.0449 42.4143 21.1376 42.6229 21.3462 43.0169H21.3694V42.1593C21.3694 41.7421 21.2999 41.464 21.1376 41.3249C20.9754 41.1859 20.6741 41.1163 20.1874 41.1163C19.4921 41.1163 19.1676 41.3713 19.1676 41.858M20.0715 43.2487C19.3066 43.2487 18.9358 43.5036 18.9358 43.9903C18.9358 44.477 19.0053 44.5697 19.1676 44.6625C19.3298 44.7783 19.6543 44.8247 20.1642 44.8247C20.9754 44.8247 21.3926 44.5698 21.3926 44.0367C21.3926 43.5036 20.9522 43.2255 20.0715 43.2255" fill="#1E1E1E"/>
<path d="M30.6865 40.3051V41.2785H28.5078V43.9439C28.5078 44.4306 28.7164 44.6856 29.1104 44.6856C29.5045 44.6856 29.7594 44.3843 29.7594 43.7817V43.5731H30.9183V43.8512C30.9183 44.1061 30.9183 44.3147 30.8951 44.477C30.8256 45.2882 30.1766 45.6822 28.9714 45.6822C27.7662 45.6822 27.1636 45.1723 27.1636 44.1293V41.2785H26.4451V40.3051H27.1636V39.123H28.5078V40.3051H30.6865Z" fill="#1E1E1E"/>
<path d="M36.6664 40.3057V45.6132H35.3221L35.3917 44.7093H35.3685C35.1135 45.3583 34.5109 45.6828 33.5607 45.6828C32.6104 45.6828 31.637 45.0802 31.637 43.875V40.3057H32.9812V43.5737C32.9812 44.0372 33.0508 44.3153 33.1898 44.4544C33.3289 44.5934 33.607 44.663 34.0242 44.663C34.8818 44.663 35.3221 44.1763 35.3221 43.2028V40.3057H36.6664Z" fill="#1E1E1E"/>
<path d="M38.0337 40.3051H39.378L39.3316 41.2091H39.3548C39.6097 40.5833 40.2123 40.2588 41.1163 40.2588C42.4374 40.2588 43.1095 40.8382 43.1095 42.0203V45.6359H41.7652V41.858C41.6725 41.464 41.348 41.2554 40.7454 41.2554C39.8415 41.2554 39.378 41.6726 39.378 42.4838V45.6359H38.0337V40.3283V40.3051Z" fill="#1E1E1E"/>
<path d="M45.7749 39.1003H44.4307V38.0342H45.7749V39.1003ZM45.7749 45.6131H44.4307V40.3055H45.7749V45.6131Z" fill="#1E1E1E"/>
<path d="M47.0962 40.3051H48.4405L48.3941 41.2091H48.4173C48.6722 40.5833 49.2748 40.2588 50.1788 40.2588C51.4999 40.2588 52.172 40.8382 52.172 42.0203V45.6359H50.8277V41.858C50.735 41.464 50.4105 41.2554 49.8079 41.2554C48.904 41.2554 48.4405 41.6726 48.4405 42.4838V45.6359H47.0962V40.3283V40.3051Z" fill="#1E1E1E"/>
<path d="M58.5225 40.3056V45.7059C58.5225 46.5634 58.3371 47.1661 57.9662 47.4905C57.5954 47.815 56.9001 47.9773 55.9034 47.9773C54.9068 47.9773 54.3042 47.8614 53.9566 47.6064C53.6321 47.3515 53.4698 46.8879 53.4698 46.1463H54.7678C54.7678 46.4939 54.8373 46.7025 54.9764 46.8184C55.1154 46.9111 55.4167 46.9575 55.9034 46.9575C56.7378 46.9575 57.155 46.633 57.155 45.984V44.7788H57.1318C56.9001 45.3351 56.3438 45.6132 55.4863 45.6132C54.6287 45.6132 54.0493 45.4278 53.748 45.0338C53.4467 44.6397 53.2844 43.9212 53.2844 42.8551C53.2844 41.7889 53.4467 41.1632 53.748 40.7923C54.0724 40.4215 54.6287 40.2129 55.4399 40.2129C56.2511 40.2129 56.9232 40.5142 57.2014 41.1632H57.2245L57.155 40.2824H58.4993L58.5225 40.3056ZM55.8571 41.2559C55.3472 41.2559 54.9995 41.3486 54.8605 41.5572C54.7214 41.7658 54.6287 42.2061 54.6287 42.9014C54.6287 43.5968 54.6982 44.1298 54.8605 44.3384C54.9995 44.547 55.3472 44.6397 55.8803 44.6397C56.4133 44.6397 56.761 44.5239 56.9001 44.3153C57.0623 44.1067 57.1318 43.6199 57.1318 42.9014C57.1318 42.183 57.0623 41.7426 56.9001 41.5572C56.7378 41.3486 56.3902 41.2559 55.8571 41.2559Z" fill="#1E1E1E"/>
<path d="M62.8567 40.3049H64.201L64.1546 41.1161H64.1778C64.4559 40.5367 65.0353 40.2354 65.8929 40.2354C66.7504 40.2354 67.4689 40.5598 67.5848 41.2088H67.608C67.863 40.5598 68.4424 40.2354 69.3463 40.2354C70.6442 40.2354 71.2932 40.8611 71.2932 42.0895V45.6125H69.9489V42.3677C69.9489 41.626 69.6244 41.232 68.9755 41.232C68.3265 41.232 67.7471 41.6492 67.7471 42.4835V45.5893H66.4028V42.2981C66.4028 41.8578 66.3333 41.5565 66.2174 41.4174C66.1015 41.2783 65.8234 41.2088 65.4293 41.2088C64.595 41.2088 64.1778 41.6492 64.1778 42.5067V45.5893H62.8335V40.2817L62.8567 40.3049Z" fill="#1E1E1E"/>
<path d="M74.0975 41.858H72.7301C72.7301 41.2322 72.8923 40.7919 73.1936 40.5833C73.5181 40.3747 74.1207 40.2588 75.071 40.2588C76.0212 40.2588 76.7629 40.3979 77.1337 40.6528C77.4814 40.9078 77.6668 41.4176 77.6668 42.1593V45.6359H76.3225L76.3921 44.9174H76.3457C76.0908 45.4505 75.4882 45.7054 74.5611 45.7054C73.1936 45.7054 72.5215 45.1492 72.5215 44.0599C72.5215 42.9705 73.2168 42.4143 74.6074 42.4143C75.9981 42.4143 76.0908 42.6229 76.2994 43.0169H76.3225V42.1593C76.3225 41.7421 76.253 41.464 76.0908 41.3249C75.9285 41.1859 75.6272 41.1163 75.1405 41.1163C74.4452 41.1163 74.1207 41.3713 74.1207 41.858M75.0246 43.2487C74.2598 43.2487 73.8889 43.5036 73.8889 43.9903C73.8889 44.477 73.9585 44.5697 74.1207 44.6625C74.283 44.7783 74.6074 44.8247 75.1173 44.8247C75.9285 44.8247 76.3457 44.5698 76.3457 44.0367C76.3457 43.5036 75.9054 43.2255 75.0246 43.2255" fill="#1E1E1E"/>
<path d="M83.6929 41.765H82.3717C82.3717 41.7187 82.3717 41.6955 82.3717 41.6723C82.3486 41.4174 82.2559 41.2551 82.14 41.1856C82.0009 41.1161 81.6996 41.0929 81.2129 41.0929C80.5176 41.0929 80.1699 41.3015 80.1699 41.7419C80.1699 42.1822 80.2395 42.2054 80.3553 42.2749C80.4712 42.3213 80.8884 42.3677 81.6069 42.414C82.5803 42.4604 83.183 42.5762 83.4843 42.7848C83.7856 42.9703 83.9246 43.3875 83.9246 43.9901C83.9246 44.5927 83.7392 45.0794 83.3452 45.3343C82.9512 45.5893 82.2559 45.7052 81.2592 45.7052C80.2626 45.7052 79.6368 45.5893 79.2892 45.3575C78.9415 45.1257 78.7561 44.7086 78.7561 44.0828V43.9437H80.1467C80.1467 44.0132 80.1236 44.0828 80.1004 44.1291C80.054 44.5927 80.4249 44.8244 81.2592 44.8244C82.0936 44.8244 82.534 44.5927 82.534 44.1291C82.534 43.6656 82.2559 43.457 81.7228 43.457C80.5176 43.457 79.7295 43.3411 79.3355 43.1325C78.9415 42.9239 78.7561 42.4604 78.7561 41.7882C78.7561 41.1161 78.9415 40.7684 79.2892 40.5598C79.6368 40.3512 80.309 40.2354 81.3056 40.2354C82.3022 40.2354 82.8816 40.3281 83.2061 40.5367C83.5306 40.7452 83.6929 41.1393 83.6929 41.765Z" fill="#1E1E1E"/>
<path d="M88.5832 40.3051V41.2785H86.4278V43.9439C86.4278 44.4306 86.6364 44.6856 87.0304 44.6856C87.4244 44.6856 87.6793 44.3843 87.6793 43.7817V43.5731H88.8382V43.8512C88.8382 44.1061 88.8382 44.3147 88.815 44.477C88.7455 45.2882 88.0965 45.6822 86.8913 45.6822C85.6861 45.6822 85.0835 45.1723 85.0835 44.1293V41.2785H84.365V40.3051H85.0835V39.123H86.4278V40.3051H88.5832Z" fill="#1E1E1E"/>
<path d="M93.1724 43.9208H94.5166V44.1294C94.5166 45.1724 93.6823 45.6823 92.0367 45.6823C90.3911 45.6823 90.1825 45.4968 89.8349 45.1492C89.4872 44.7783 89.325 44.0367 89.325 42.8778C89.325 41.719 89.5104 41.1395 89.858 40.7919C90.2289 40.4442 90.9242 40.2588 91.9672 40.2588C93.0101 40.2588 93.6359 40.421 93.9836 40.7687C94.3312 41.1163 94.4935 41.7885 94.4935 42.8083V43.2023H90.6924C90.6924 43.3182 90.6924 43.3877 90.6924 43.4341C90.6924 43.9671 90.7851 44.3148 90.9474 44.477C91.1096 44.6625 91.4573 44.732 91.9672 44.732C92.4771 44.732 92.7784 44.6856 92.9406 44.5698C93.0797 44.477 93.1724 44.2453 93.1724 43.9208ZM93.1724 42.4143V42.2057C93.1724 41.7885 93.0797 41.5104 92.9406 41.3945C92.7784 41.2786 92.4539 41.2091 91.9208 41.2091C91.3877 41.2091 91.0864 41.2786 90.9474 41.4408C90.7851 41.6031 90.7156 41.9276 90.7156 42.4374H93.1724V42.4143Z" fill="#1E1E1E"/>
<path d="M95.6987 40.3056H97.043L96.9503 41.0473H96.9735C97.298 40.491 97.8079 40.2129 98.5032 40.2129C99.4998 40.2129 99.9865 40.7923 99.9865 41.9744V42.3452H98.7118C98.7118 42.2061 98.7349 42.1134 98.7349 42.0671C98.7349 41.4876 98.5032 41.2095 98.0396 41.2095C97.3675 41.2095 97.043 41.6267 97.043 42.4611V45.59H95.6987V40.2824V40.3056Z" fill="#1E1E1E"/>
<path d="M100.728 40.3049H102.073L102.026 41.1161H102.049C102.327 40.5367 102.907 40.2354 103.764 40.2354C104.622 40.2354 105.341 40.5598 105.456 41.2088C105.711 40.5598 106.291 40.2354 107.195 40.2354C108.493 40.2354 109.142 40.8611 109.142 42.0895V45.6125H107.797V42.3677C107.797 41.626 107.473 41.232 106.824 41.232C106.175 41.232 105.595 41.6492 105.595 42.4835V45.5893H104.251V42.2981C104.251 41.8578 104.182 41.5565 104.066 41.4174C103.95 41.2783 103.672 41.2088 103.278 41.2088C102.443 41.2088 102.026 41.6492 102.026 42.5067V45.5893H100.682V40.2817L100.728 40.3049Z" fill="#1E1E1E"/>
<path d="M111.923 39.1003H110.578V38.0342H111.923V39.1003ZM111.923 45.6131H110.578V40.3055H111.923V45.6131Z" fill="#1E1E1E"/>
<path d="M113.244 40.3051H114.588L114.542 41.2091H114.565C114.82 40.5833 115.423 40.2588 116.326 40.2588C117.648 40.2588 118.32 40.8382 118.32 42.0203V45.6359H116.975V41.858C116.883 41.464 116.558 41.2554 115.956 41.2554C115.052 41.2554 114.588 41.6726 114.588 42.4838V45.6359H113.244V40.3283V40.3051Z" fill="#1E1E1E"/>
<path d="M124.647 38.0339V45.6129H123.326L123.372 44.7553H123.349C123.094 45.3579 122.515 45.6824 121.634 45.6824C120.753 45.6824 120.151 45.497 119.873 45.103C119.594 44.709 119.432 43.9441 119.432 42.7621C119.432 41.58 119.594 41.1628 119.896 40.792C120.197 40.4212 120.753 40.2358 121.541 40.2358C122.329 40.2358 123.025 40.5139 123.256 41.047H123.28V38.0107H124.624L124.647 38.0339ZM122.005 41.2556C121.495 41.2556 121.17 41.3483 121.031 41.5569C120.892 41.7655 120.8 42.1826 120.8 42.8548C120.8 43.5269 120.869 44.1295 121.031 44.3381C121.17 44.5699 121.518 44.6626 122.028 44.6626C122.538 44.6626 122.909 44.5467 123.071 44.3381C123.233 44.1295 123.303 43.6196 123.303 42.8316C123.303 42.0436 123.21 41.7423 123.048 41.5569C122.886 41.3483 122.538 41.2556 122.005 41.2556Z" fill="#1E1E1E"/>
<path d="M127.266 44.2451H125.922V45.6126H127.266V44.2451Z" fill="#1E1E1E"/>
<path d="M133.107 38.0342V44.3384H136.884V45.6131H131.577V38.0342H133.107Z" fill="#1E1E1E"/>
<path d="M138.947 39.1003H137.603V38.0342H138.947V39.1003ZM138.947 45.6131H137.603V40.3055H138.947V45.6131Z" fill="#1E1E1E"/>
<path d="M141.636 38.0342V42.3683H141.984L143.49 40.3055H145.066L143.096 42.8087L145.46 45.6131H143.791L141.96 43.2722H141.636V45.6131H140.269V38.0342H141.636Z" fill="#1E1E1E"/>
<path d="M149.702 43.9208H151.046V44.1294C151.046 45.1724 150.212 45.6823 148.566 45.6823C146.92 45.6823 146.712 45.4968 146.364 45.1492C146.016 44.7783 145.854 44.0367 145.854 42.8778C145.854 41.719 146.04 41.1395 146.387 40.7919C146.758 40.4442 147.453 40.2588 148.496 40.2588C149.539 40.2588 150.165 40.421 150.513 40.7687C150.861 41.1163 151.023 41.7885 151.023 42.8083V43.2023H147.222C147.222 43.3182 147.222 43.3877 147.222 43.4341C147.222 43.9671 147.314 44.3148 147.477 44.477C147.639 44.6625 147.987 44.732 148.496 44.732C149.006 44.732 149.308 44.6856 149.47 44.5698C149.609 44.477 149.702 44.2453 149.702 43.9208ZM149.702 42.4143V42.2057C149.702 41.7885 149.609 41.5104 149.47 41.3945C149.308 41.2786 148.983 41.2091 148.45 41.2091C147.917 41.2091 147.616 41.2786 147.477 41.4408C147.314 41.6031 147.245 41.9276 147.245 42.4374H149.702V42.4143Z" fill="#1E1E1E"/>
<path d="M160.178 40.3057V45.6132H158.833L158.903 44.7093C158.648 45.3583 158.045 45.6828 157.095 45.6828C156.145 45.6828 155.171 45.0802 155.171 43.875V40.3057H156.516V43.5737C156.516 44.0372 156.585 44.3153 156.724 44.4544C156.863 44.5934 157.141 44.663 157.559 44.663C158.416 44.663 158.857 44.1763 158.857 43.2028V40.3057H160.201H160.178Z" fill="#1E1E1E"/>
<path d="M166.25 41.765H164.929C164.929 41.7187 164.929 41.6955 164.929 41.6723C164.906 41.4174 164.813 41.2551 164.697 41.1856C164.558 41.1161 164.257 41.0929 163.77 41.0929C163.075 41.0929 162.727 41.3015 162.727 41.7419C162.727 42.1822 162.797 42.2054 162.913 42.2749C163.029 42.3213 163.446 42.3677 164.164 42.414C165.115 42.4604 165.74 42.5762 166.042 42.7848C166.343 42.9703 166.482 43.3875 166.482 43.9901C166.482 44.5927 166.297 45.0794 165.903 45.3343C165.509 45.5893 164.813 45.7052 163.817 45.7052C162.82 45.7052 162.194 45.5893 161.847 45.3575C161.499 45.1257 161.313 44.7086 161.313 44.0828V43.9437H162.704C162.704 44.0132 162.681 44.0828 162.658 44.1291C162.611 44.5927 162.982 44.8244 163.817 44.8244C164.651 44.8244 165.091 44.5927 165.091 44.1291C165.091 43.6656 164.813 43.457 164.28 43.457C163.075 43.457 162.287 43.3411 161.893 43.1325C161.499 42.9239 161.313 42.4604 161.313 41.7882C161.313 41.1161 161.499 40.7684 161.847 40.5598C162.194 40.3512 162.866 40.2354 163.863 40.2354C164.86 40.2354 165.439 40.3281 165.764 40.5367C166.088 40.7452 166.25 41.1393 166.25 41.765Z" fill="#1E1E1E"/>
<path d="M168.8 44.2451H167.455V45.6126H168.8V44.2451Z" fill="#1E1E1E"/>
</g>
<defs>
<linearGradient id="paint0_linear_993_26496" x1="92.4539" y1="-0.653597" x2="92.4539" y2="38.1729" gradientUnits="userSpaceOnUse">
<stop stop-color="#F9B919"/>
<stop offset="0.2" stop-color="#F7AC1A"/>
<stop offset="0.3" stop-color="#F28A1E"/>
<stop offset="0.5" stop-color="#EB5423"/>
<stop offset="0.6" stop-color="#E52529"/>
<stop offset="1" stop-color="#E52529"/>
</linearGradient>
<clipPath id="clip0_993_26496">
<rect width="181.501" height="48" fill="white"/>
</clipPath>
</defs>
</svg>
