<svg width="57" height="56" viewBox="0 0 57 56" fill="none" xmlns="http://www.w3.org/2000/svg">
<path d="M40.8153 47.3149C38.5289 49.5313 36.0326 49.1813 33.6295 48.1315C31.0865 47.0583 28.7535 47.0116 26.0705 48.1315C22.7109 49.578 20.9378 49.158 18.9314 47.3149C7.54616 35.5797 9.22595 17.7086 22.151 17.0554C25.3006 17.2187 27.4936 18.7818 29.3367 18.9218C32.0897 18.3619 34.7261 16.7521 37.6657 16.9621C41.1886 17.242 43.8482 18.6419 45.598 21.1615C38.3189 25.5243 40.0454 35.1131 46.7179 37.7961C45.3881 41.2957 43.6616 44.7719 40.792 47.3382L40.8153 47.3149ZM29.1034 16.9154C28.7535 11.7127 32.9763 7.41995 37.829 7C38.5056 13.0192 32.3697 17.4987 29.1034 16.9154Z" fill="#333333"/>
</svg>
