<svg width="176" height="15" viewBox="0 0 176 15" fill="none" xmlns="http://www.w3.org/2000/svg">
<g clip-path="url(#clip0_358_3656)">
<path d="M20.2561 3.19219H9.43791C8.84105 3.19219 8.38926 3.24993 8.07425 3.36129C7.75924 3.47677 7.55199 3.69948 7.44837 4.03354C7.29501 4.52021 7.76338 4.76354 8.84934 4.76354H17.881C20.2809 5.03574 21.3835 5.98845 21.1969 7.61342L20.4592 9.8694C19.626 11.482 17.9183 12.4429 15.3319 12.7646H0.103638L1.12328 9.57245H14.2626C14.8594 9.57245 15.3112 9.51471 15.6262 9.39923C15.9412 9.28375 16.1568 9.06104 16.277 8.72697C16.4303 8.21144 15.9702 7.95161 14.9009 7.95161H5.86917C3.43612 7.69178 2.33358 6.75969 2.55326 5.1471L3.26618 2.89112C4.0993 1.28265 5.807 0.317569 8.3934 0H23.9284L20.2561 3.19219Z" fill="white"/>
<path d="M26.0962 0H41.3245C43.7037 0.317569 44.7938 1.28265 44.5907 2.89524L43.4426 6.47512C42.5763 8.10008 40.8644 9.04454 38.3153 9.30025H29.1593L32.7819 6.10806H37.3744C38.4646 6.10806 39.136 5.71213 39.3889 4.92439L39.5174 4.51608C39.7909 3.63349 39.3474 3.19219 38.191 3.19219H29.6194L26.5563 12.7646H21.9886L26.0962 0Z" fill="white"/>
<path d="M52.524 0L50.9158 4.94501C50.6588 5.73687 51.0774 6.12868 52.1675 6.12868H59.2345C60.3247 6.12868 60.9961 5.73275 61.249 4.94501L62.8572 0H67.4248L65.3317 6.49574C64.4654 8.1207 62.7453 9.06516 60.1796 9.32087H56.9673L55.8689 12.7605H51.3012L52.3996 9.32087H49.1874C46.7709 9.07754 45.6766 8.1372 45.8963 6.49574L47.9895 0H52.5323L52.524 0Z" fill="white"/>
<path d="M70.9645 10.8056H73.9364L73.0452 7.08964L68.0589 12.7605H64.8052L71.7023 4.93677H75.7974L77.675 12.7605H68.747L70.9686 10.8056H70.9645Z" fill="white"/>
<path d="M80.8293 4.94089H83.6106L81.9526 10.0674C81.7951 10.5623 82.0521 10.8097 82.7194 10.8097H88.0497L89.9398 4.94089H92.7376L90.2216 12.7646H80.8874C79.3952 12.5955 78.7237 12.014 78.8688 11.0201L80.8211 4.94501L80.8293 4.94089Z" fill="white"/>
<path d="M105.251 4.94089L103.017 6.8958H100.203L98.3249 12.7605H95.5437L97.4213 6.8958H93.0443L95.2784 4.94089H105.255H105.251Z" fill="white"/>
<path d="M108.753 4.94089H115.522C116.981 5.13473 117.648 5.72863 117.524 6.71433L116.148 11.0159C115.617 12.014 114.565 12.5955 112.99 12.7605H106.25C104.758 12.5914 104.086 12.0099 104.231 11.0159L105.607 6.71433C106.117 5.72863 107.166 5.13473 108.749 4.94089H108.753ZM108.082 7.70828L107.315 10.0674C107.158 10.5623 107.415 10.8097 108.082 10.8097H112.413C113.081 10.8097 113.491 10.5623 113.649 10.0674L114.415 7.70828C114.581 7.168 114.312 6.89992 113.603 6.89992H109.396C108.687 6.89992 108.248 7.17212 108.082 7.70828Z" fill="white"/>
<path d="M130.609 4.94089L128.375 6.8958H125.561L123.683 12.7605H120.902L122.78 6.8958H118.403L120.637 4.94089H130.614H130.609Z" fill="white"/>
<path d="M133.13 8.59913L133.925 7.90212H141.709L139.504 9.85703H132.736L132.425 10.8056H140.806L138.584 12.7605H129.018L131.534 4.93677H142.493L141.85 6.89168H133.673L133.125 8.595L133.13 8.59913Z" fill="white"/>
<path d="M146.497 4.94089H153.265C154.724 5.13473 155.392 5.72863 155.267 6.71433L154.816 8.12484H152.018L152.159 7.70416C152.324 7.16388 152.055 6.8958 151.346 6.8958H147.139C146.43 6.8958 145.991 7.168 145.825 7.70416L145.058 10.0632C144.901 10.5582 145.158 10.8056 145.825 10.8056H150.157C150.824 10.8056 151.234 10.5582 151.392 10.0632L151.533 9.6302H154.331L153.891 11.0118C153.361 12.0099 152.308 12.5914 150.733 12.7564H143.993C142.501 12.5873 141.83 12.0058 141.975 11.0118L143.351 6.71021C143.861 5.7245 144.909 5.13061 146.493 4.93677L146.497 4.94089Z" fill="white"/>
<path d="M165.07 9.16002L164.274 9.85703H158.55L157.613 12.7646H154.832L157.348 4.94089H160.129L158.94 8.59912L159.735 7.90212H165.472L166.425 4.94089H169.24L166.724 12.7646H163.909L165.066 9.16002H165.07Z" fill="white"/>
<path d="M115.816 2.90762C115.816 2.90762 117.155 0.738251 120.434 0.738251H163.292C163.292 0.738251 169.231 2.32197 174.284 5.92659C175.594 7.27936 177.853 8.43003 173.235 11.1397C168.622 13.8493 168.212 15 162.699 15H0V13.7916H162.6C162.6 13.7916 164.713 14.2411 167.287 12.777C169.861 11.3129 173.729 8.8837 173.397 8.37229C173.065 7.86088 168.568 4.26863 161.945 2.18175C155.006 2.10751 121.768 2.18175 121.768 2.18175C121.768 2.18175 117.793 2.67254 115.816 2.9035V2.90762Z" fill="white"/>
</g>
<defs>
<clipPath id="clip0_358_3656">
<rect width="176" height="15" fill="white"/>
</clipPath>
</defs>
</svg>
