<svg width="48" height="48" viewBox="0 0 48 48" fill="none" xmlns="http://www.w3.org/2000/svg">
<g clip-path="url(#clip0_993_34413)">
<path d="M25.1634 12.1484C24.4901 12.1484 23.9443 12.6942 23.9443 13.3675V15.7119C23.9443 16.3852 24.4901 16.931 25.1634 16.931C25.8367 16.931 26.3825 16.3852 26.3825 15.7119V13.3675C26.3825 12.6942 25.8367 12.1484 25.1634 12.1484Z" fill="url(#paint0_linear_993_34413)"/>
<path d="M25.1634 37.9785C24.4901 37.9785 23.9443 38.5243 23.9443 39.1976V41.542C23.9443 42.2153 24.4901 42.761 25.1634 42.761C25.8367 42.761 26.3825 42.2153 26.3825 41.542V39.1976C26.3825 38.5243 25.8367 37.9785 25.1634 37.9785Z" fill="url(#paint1_linear_993_34413)"/>
<path d="M39.2492 26.2354H36.9049C36.2316 26.2354 35.6858 26.7811 35.6858 27.4544C35.6858 28.1277 36.2316 28.6735 36.9049 28.6735H39.2492C39.9225 28.6735 40.4683 28.1277 40.4683 27.4544C40.4683 26.7811 39.9225 26.2354 39.2492 26.2354Z" fill="url(#paint2_linear_993_34413)"/>
<path d="M36.0253 36.5927C36.0125 36.5793 35.9994 36.5663 35.986 36.5534L34.3281 34.8955C33.8629 34.4087 33.0913 34.3911 32.6045 34.8562C32.1177 35.3213 32.1001 36.093 32.5652 36.5798C32.5779 36.5932 32.5911 36.6062 32.6045 36.6191L34.2624 38.277C34.7275 38.7638 35.4992 38.7814 35.986 38.3163C36.4728 37.8512 36.4904 37.0795 36.0253 36.5927Z" fill="url(#paint3_linear_993_34413)"/>
<path d="M35.2952 17.2497C34.8271 16.82 34.1074 16.8219 33.6416 17.2542L27.1711 23.7247C25.1091 22.6133 22.5365 23.3839 21.425 25.446C21.0915 26.0648 20.917 26.7568 20.9172 27.4598L20.92 27.4542C20.9188 29.7977 22.8176 31.6985 25.1611 31.6997C27.5047 31.701 29.4055 29.8022 29.4067 27.4587C29.4071 26.7549 29.2324 26.0622 28.8984 25.4427L35.3689 18.9722C35.8242 18.4762 35.7912 17.705 35.2952 17.2497ZM25.1634 29.2593C24.1664 29.2593 23.3582 28.4511 23.3582 27.4542C23.3592 26.4576 24.1668 25.65 25.1634 25.649C26.1603 25.649 26.9685 26.4572 26.9685 27.4542C26.9685 28.4511 26.1603 29.2593 25.1634 29.2593Z" fill="url(#paint4_linear_993_34413)"/>
<path d="M44.4247 12.5143C44.8899 13.0011 45.6615 13.0187 46.1483 12.5536C46.6351 12.0885 46.6527 11.3168 46.1876 10.83C46.1749 10.8166 46.1617 10.8035 46.1483 10.7907L41.8272 6.47048C41.3404 6.00536 40.5687 6.02299 40.1036 6.50977C39.6534 6.98099 39.6534 7.72285 40.1036 8.19407L41.408 9.49848L38.8189 12.0876C35.3775 9.00963 30.993 7.19114 26.3833 6.92998V2.43815H30.6876C31.3609 2.43815 31.9067 1.89238 31.9067 1.21908C31.9067 0.545771 31.3609 0 30.6876 0H19.64C18.9667 0 18.4209 0.545771 18.4209 1.21908C18.4209 1.89238 18.9667 2.43815 19.64 2.43815H23.9443V6.93185C18.9194 7.21646 14.177 9.34788 10.6282 12.9166C10.1631 13.4034 10.1807 14.175 10.6675 14.6402C11.1387 15.0904 11.8806 15.0904 12.3518 14.6402C19.4281 7.5638 30.9011 7.56371 37.9775 14.64L37.9777 14.6402C45.0427 21.7052 45.0427 33.2011 37.9777 40.2661C30.9127 47.3311 19.4168 47.3311 12.3518 40.2661C11.865 39.801 11.0933 39.8186 10.6282 40.3054C10.178 40.7766 10.178 41.5184 10.6282 41.9897C18.6628 50.0121 31.6796 50.0022 39.702 41.9676C47.3795 34.2785 47.7477 21.9426 40.5424 13.8093L43.1325 11.2193L44.4247 12.5143Z" fill="url(#paint5_linear_993_34413)"/>
<path d="M13.8738 18.417H2.69393C2.02062 18.417 1.47485 18.9628 1.47485 19.6361C1.47485 20.3094 2.02062 20.8551 2.69393 20.8551H13.8738C14.5471 20.8551 15.0929 20.3094 15.0929 19.6361C15.0929 18.9628 14.5471 18.417 13.8738 18.417Z" fill="url(#paint6_linear_993_34413)"/>
<path d="M16.7151 26.2354H5.53426C4.86096 26.2354 4.31519 26.7811 4.31519 27.4544C4.31519 28.1277 4.86096 28.6735 5.53426 28.6735H16.7151C17.3884 28.6735 17.9341 28.1277 17.9341 27.4544C17.9341 26.7811 17.3884 26.2354 16.7151 26.2354Z" fill="url(#paint7_linear_993_34413)"/>
<path d="M13.8738 34.0527H2.69393C2.02062 34.0527 1.47485 34.5985 1.47485 35.2718C1.47485 35.9451 2.02062 36.4909 2.69393 36.4909H13.8738C14.5471 36.4909 15.0929 35.9451 15.0929 35.2718C15.0929 34.5985 14.5471 34.0527 13.8738 34.0527Z" fill="url(#paint8_linear_993_34413)"/>
</g>
<defs>
<linearGradient id="paint0_linear_993_34413" x1="23.9443" y1="16.931" x2="26.9468" y2="16.8795" gradientUnits="userSpaceOnUse">
<stop stop-color="#FFADAD"/>
<stop offset="1" stop-color="#D21111"/>
</linearGradient>
<linearGradient id="paint1_linear_993_34413" x1="23.9443" y1="42.761" x2="26.9468" y2="42.7095" gradientUnits="userSpaceOnUse">
<stop stop-color="#FFADAD"/>
<stop offset="1" stop-color="#D21111"/>
</linearGradient>
<linearGradient id="paint2_linear_993_34413" x1="35.6858" y1="28.6735" x2="41.5515" y2="28.2863" gradientUnits="userSpaceOnUse">
<stop stop-color="#FFADAD"/>
<stop offset="1" stop-color="#D21111"/>
</linearGradient>
<linearGradient id="paint3_linear_993_34413" x1="32.2275" y1="38.6539" x2="37.3158" y2="38.4827" gradientUnits="userSpaceOnUse">
<stop stop-color="#FFADAD"/>
<stop offset="1" stop-color="#D21111"/>
</linearGradient>
<linearGradient id="paint4_linear_993_34413" x1="20.9172" y1="31.6997" x2="39.0939" y2="31.088" gradientUnits="userSpaceOnUse">
<stop stop-color="#FFADAD"/>
<stop offset="1" stop-color="#D21111"/>
</linearGradient>
<linearGradient id="paint5_linear_993_34413" x1="10.2905" y1="48" x2="54.8965" y2="46.8668" gradientUnits="userSpaceOnUse">
<stop stop-color="#FFADAD"/>
<stop offset="1" stop-color="#D21111"/>
</linearGradient>
<linearGradient id="paint6_linear_993_34413" x1="1.47485" y1="20.8551" x2="17.6774" y2="17.8096" gradientUnits="userSpaceOnUse">
<stop stop-color="#FFADAD"/>
<stop offset="1" stop-color="#D21111"/>
</linearGradient>
<linearGradient id="paint7_linear_993_34413" x1="4.31519" y1="28.6735" x2="20.5187" y2="25.6275" gradientUnits="userSpaceOnUse">
<stop stop-color="#FFADAD"/>
<stop offset="1" stop-color="#D21111"/>
</linearGradient>
<linearGradient id="paint8_linear_993_34413" x1="1.47485" y1="36.4909" x2="17.6774" y2="33.4453" gradientUnits="userSpaceOnUse">
<stop stop-color="#FFADAD"/>
<stop offset="1" stop-color="#D21111"/>
</linearGradient>
<clipPath id="clip0_993_34413">
<rect width="48" height="48" fill="white"/>
</clipPath>
</defs>
</svg>
